<?xml version="1.0" encoding="utf-8"?>
<!-- Generator: Adobe Illustrator 19.1.0, SVG Export Plug-In . SVG Version: 6.00 Build 0)  -->
<svg version="1.1" id="Layer_1" xmlns="http://www.w3.org/2000/svg" xmlns:xlink="http://www.w3.org/1999/xlink" x="0px" y="0px"
	 viewBox="-160 266 290.7 261" style="enable-background:new -160 266 290.7 261;" xml:space="preserve">
<style type="text/css">
	.st0{fill:#212944;}
</style>
<path class="st0" d="M33.7,423c0.2,8.2,2.4,14.5,6.6,19s9.5,6.8,15.8,6.8c4.3,0,7.9-1.2,10.8-3.5s6.1-5.1,7.6-10.3h26.1
	c-2.3,12.2-8.7,21.3-16.3,26.5c-7.6,5.3-17.1,7.9-28.5,7.9c-18.1,0-31.4-5.9-40.1-17.7c-6.8-9.5-10.3-21.4-10.3-35.9
	c0-17.2,4.5-30.7,13.5-40.5s20.4-14.6,34.1-14.6c15.4,0,27.6,5.1,36.6,15.3c8.9,10.2,13,25.9,12.6,46.9L33.7,423L33.7,423z
	 M69.1,388c-3.9-4.1-8.7-6.2-14.3-6.2c-6,0-10.9,2.2-14.8,6.6s-5.8,10.3-5.8,17.8h41C75,398.2,73,392.1,69.1,388z M19.1,326.1h64.7
	v16.7H19.1V326.1z M-22.8,459.3c-5.3,3.7-11.7,6-19.4,6.8c-4.8,0.5-16.5,0.9-34.9,1h-48.8V323.5h57.3c11.3,0,19.8,0.5,25.4,1.4
	s10.6,2.9,15,5.9s8.1,7,11,12s4.4,10.6,4.4,16.8c0,6.7-1.8,12.9-5.4,18.5s-8.5,9.8-14.7,12.6c8.7,2.5,15.4,6.9,20.1,13
	s7,13.4,7,21.7c0,6.5-1.5,12.9-4.5,19.1C-13.4,450.8-17.5,455.6-22.8,459.3z M-44.7,352.9c-2.4-2.8-6.1-4.4-10.9-5
	c-2.9-0.3-11.1-0.5-24.7-0.5h-16.6v33.2H-78c11.3,0,18.3-0.2,21-0.5c4.9-0.6,8.8-2.3,11.7-5.1c2.8-2.8,4.2-6.6,4.2-11.2
	C-41.1,359.3-42.3,355.8-44.7,352.9z M-38.8,413.1c-2.1-3-5.1-5.2-9-6.6s-12.5-2.1-25.7-2.1h-23.4v38.4h26.8c10.4,0,17-0.3,19.9-0.9
	c4.3-0.8,7.8-2.7,10.5-5.7s4.1-7.1,4.1-12.2C-35.7,419.8-36.7,416.1-38.8,413.1z"/>
</svg>
