<?xml version="1.0" encoding="utf-8"?>
<!-- Generator: Adobe Illustrator 19.1.0, SVG Export Plug-In . SVG Version: 6.00 Build 0)  -->
<svg version="1.1" id="Layer_1" xmlns="http://www.w3.org/2000/svg" xmlns:xlink="http://www.w3.org/1999/xlink" x="0px" y="0px"
	 viewBox="-160 266 290.7 261" style="enable-background:new -160 266 290.7 261;" xml:space="preserve">
<style type="text/css">
	.st0{fill:#FFFFFF;}
</style>
<path class="st0" d="M33.6,421c0.2,8.2,2.4,14.5,6.6,19c4.2,4.5,9.5,6.8,15.8,6.8c4.3,0,7.9-1.2,10.8-3.5c2.9-2.3,6.1-5.1,7.6-10.3
	l26.1,0c-2.3,12.2-8.7,21.3-16.3,26.5c-7.6,5.3-17.1,7.9-28.5,7.9c-18.1,0-31.4-5.9-40.1-17.7c-6.8-9.5-10.3-21.4-10.3-35.9
	c0-17.2,4.5-30.7,13.5-40.5c9-9.8,20.4-14.6,34.1-14.6c15.4,0,27.6,5.1,36.6,15.3c8.9,10.2,13,25.9,12.6,46.9L33.6,421L33.6,421z
	 M69,386c-3.9-4.1-8.7-6.2-14.3-6.2c-6,0-10.9,2.2-14.8,6.6c-3.9,4.4-5.8,10.3-5.8,17.8h41C74.9,396.2,72.9,390.1,69,386z M19,324.1
	h64.7v16.7H19V324.1z M-22.9,457.3c-5.3,3.7-11.7,6-19.4,6.8c-4.8,0.5-16.5,0.9-34.9,1H-126V321.5h57.3c11.3,0,19.8,0.5,25.4,1.4
	c5.6,0.9,10.6,2.9,15,5.9c4.4,3,8.1,7,11,12c2.9,5,4.4,10.6,4.4,16.8c0,6.7-1.8,12.9-5.4,18.5c-3.6,5.6-8.5,9.8-14.7,12.6
	c8.7,2.5,15.4,6.9,20.1,13c4.7,6.1,7,13.4,7,21.7c0,6.5-1.5,12.9-4.5,19.1C-13.5,448.7-17.6,453.6-22.9,457.3z M-44.8,350.9
	c-2.4-2.8-6.1-4.4-10.9-5c-2.9-0.3-11.1-0.5-24.7-0.5H-97v33.2h18.9c11.3,0,18.3-0.2,21-0.5c4.9-0.6,8.8-2.3,11.7-5.1
	c2.8-2.8,4.2-6.6,4.2-11.2C-41.2,357.3-42.4,353.7-44.8,350.9z M-38.9,411.1c-2.1-3-5.1-5.2-9-6.6c-3.9-1.4-12.5-2.1-25.7-2.1H-97
	v38.4h26.8c10.4,0,17-0.3,19.9-0.9c4.3-0.8,7.8-2.7,10.5-5.7c2.7-3,4.1-7.1,4.1-12.2C-35.8,417.7-36.8,414.1-38.9,411.1z"/>
</svg>
