<?xml version="1.0" encoding="utf-8"?>
<!-- Generator: Adobe Illustrator 16.0.4, SVG Export Plug-In . SVG Version: 6.00 Build 0)  -->
<!DOCTYPE svg PUBLIC "-//W3C//DTD SVG 1.1//EN" "http://www.w3.org/Graphics/SVG/1.1/DTD/svg11.dtd">
<svg version="1.1" id="Layer_1" xmlns="http://www.w3.org/2000/svg" xmlns:xlink="http://www.w3.org/1999/xlink" x="0px" y="0px"
	 width="290.708px" height="261px" viewBox="0 0 290.708 261" enable-background="new 0 0 290.708 261" xml:space="preserve">
<path fill-rule="evenodd" clip-rule="evenodd" d="M193.62,154.998c0.196,8.158,2.409,14.505,6.642,19.042
	c4.23,4.536,9.503,6.804,15.82,6.804c4.295,0,7.91-1.175,10.841-3.525c2.928-2.349,6.078-5.115,7.575-10.336l26.099,0.043
	c-2.331,12.166-8.703,21.266-16.298,26.537c-7.595,5.27-17.098,7.905-28.507,7.905c-18.062,0-31.427-5.909-40.098-17.73
	c-6.847-9.468-10.27-21.42-10.27-35.854c0-17.238,4.498-30.74,13.493-40.503c8.994-9.763,20.366-14.646,34.121-14.646
	c15.445,0,27.634,5.107,36.562,15.321c8.93,10.214,13.022,25.862,12.63,46.942H193.62z M228.976,119.974
	c-3.908-4.148-8.66-6.225-14.258-6.225c-5.994,0-10.941,2.191-14.847,6.568c-3.907,4.381-5.826,10.329-5.762,17.842h41.02
	C234.933,130.187,232.881,124.125,228.976,119.974z M179.021,58.144h64.742v16.708h-64.742V58.144z M137.122,191.326
	c-5.251,3.692-11.72,5.962-19.413,6.81c-4.826,0.525-16.461,0.851-34.912,0.981H34V55.533h57.303c11.342,0,19.8,0.473,25.375,1.419
	c5.571,0.947,10.558,2.918,14.96,5.919c4.4,3.001,8.068,6.998,11,11.988c2.933,4.991,4.402,10.583,4.402,16.78
	c0,6.721-1.807,12.886-5.42,18.495c-3.611,5.61-8.508,9.818-14.69,12.622c8.727,2.55,15.435,6.894,20.124,13.037
	c4.689,6.144,7.034,13.366,7.034,21.665c0,6.535-1.517,12.89-4.547,19.065C146.51,182.699,142.37,187.635,137.122,191.326z
	 M115.182,84.946c-2.443-2.77-6.072-4.449-10.889-5.037c-2.866-0.326-11.104-0.489-24.712-0.489H62.977v33.155h18.948
	c11.265,0,18.264-0.163,21-0.489c4.948-0.585,8.839-2.297,11.672-5.134c2.831-2.835,4.249-6.57,4.249-11.199
	C118.846,91.319,117.624,87.717,115.182,84.946z M121.066,145.077c-2.086-3.002-5.101-5.188-9.045-6.559s-12.503-2.056-25.669-2.056
	H62.977v38.376h26.796c10.43,0,17.049-0.293,19.853-0.881c4.301-0.783,7.806-2.693,10.512-5.727
	c2.704-3.035,4.058-7.098,4.058-12.189C124.197,151.734,123.153,148.08,121.066,145.077z"/>
</svg>
