<?xml version="1.0" encoding="utf-8"?>
<!-- Generator: Adobe Illustrator 19.1.0, SVG Export Plug-In . SVG Version: 6.00 Build 0)  -->
<svg version="1.1" id="Layer_1" xmlns="http://www.w3.org/2000/svg" xmlns:xlink="http://www.w3.org/1999/xlink" x="0px" y="0px"
	 viewBox="-266 284.8 78.5 45.2" style="enable-background:new -266 284.8 78.5 45.2;" xml:space="preserve">
<style type="text/css">
	.st0{fill:#24203E;}
</style>
<g>
	<g>
		<g>
			<path class="st0" d="M-241,318.9c-6.4,0-11.5-5.2-11.5-11.5c0-6.4,5.2-11.5,11.5-11.5c6.4,0,11.5,5.2,11.5,11.5
				C-229.4,313.7-234.6,318.9-241,318.9z M-241,299.7c-4.2,0-7.6,3.4-7.6,7.6c0,4.2,3.4,7.6,7.6,7.6c4.2,0,7.6-3.4,7.6-7.6
				S-236.8,299.7-241,299.7z"/>
		</g>
	</g>
	<g>
		<g>
			<path class="st0" d="M-212.5,318.9c-6.4,0-11.5-5.2-11.5-11.5c0-6.4,5.2-11.5,11.5-11.5c6.4,0,11.5,5.2,11.5,11.5
				C-201,313.7-206.1,318.9-212.5,318.9z M-212.5,299.7c-4.2,0-7.6,3.4-7.6,7.6c0,4.2,3.4,7.6,7.6,7.6c4.2,0,7.6-3.4,7.6-7.6
				C-204.9,303.1-208.3,299.7-212.5,299.7z"/>
		</g>
	</g>
	<g>
		<g>
			<rect x="-257.1" y="303.6" class="st0" width="6.5" height="3.9"/>
		</g>
	</g>
	<g>
		<g>
			<rect x="-202.9" y="303.6" class="st0" width="6.5" height="3.9"/>
		</g>
	</g>
	<g>
		<g>
			<path class="st0" d="M-229.7,309.7l-3.7-1.2c0.7-2.1,2.9-5.8,6.6-5.8c3.7,0,5.9,3.6,6.6,5.8l-3.7,1.2c-0.3-0.8-1.4-3.1-2.9-3.1
				C-228.3,306.6-229.4,308.9-229.7,309.7z"/>
		</g>
	</g>
</g>
<g>
	<polygon class="st0" points="-215.7,309.1 -216.2,308.7 -214.1,306.5 -212.4,304.6 -212,299.7 -211.4,299.7 -211.8,304.9 
		-213.6,306.9 	"/>
</g>
<g>
	
		<rect x="-214.8" y="304.5" transform="matrix(0.5301 0.848 -0.848 0.5301 158.0199 324.5218)" class="st0" width="2.1" height="0.6"/>
</g>
<g>
	<polygon class="st0" points="-208.7,308.4 -209.3,308.2 -208.5,305.8 -212.1,303.2 -214.4,303 -214.3,302.4 -211.8,302.6 
		-207.8,305.6 	"/>
</g>
<g>
	
		<rect x="-209.3" y="302.9" transform="matrix(0.8104 0.5858 -0.5858 0.8104 138.4266 180.0611)" class="st0" width="0.6" height="2"/>
</g>
<g>
	
		<rect x="-215.3" y="308.3" transform="matrix(0.3806 0.9247 -0.9247 0.3806 152.5945 389.3262)" class="st0" width="1.9" height="0.6"/>
</g>
<g>
	<g>
		<g>
			<path class="st0" d="M-241,259.1c-6.4,0-11.5-5.2-11.5-11.5c0-6.4,5.2-11.5,11.5-11.5c6.4,0,11.5,5.2,11.5,11.5
				C-229.4,253.9-234.6,259.1-241,259.1z M-241,239.9c-4.2,0-7.6,3.4-7.6,7.6c0,4.2,3.4,7.6,7.6,7.6c4.2,0,7.6-3.4,7.6-7.6
				S-236.8,239.9-241,239.9z"/>
		</g>
	</g>
	<g>
		<g>
			<path class="st0" d="M-212.5,259.1c-6.4,0-11.5-5.2-11.5-11.5c0-6.4,5.2-11.5,11.5-11.5c6.4,0,11.5,5.2,11.5,11.5
				C-201,253.9-206.1,259.1-212.5,259.1z M-212.5,239.9c-4.2,0-7.6,3.4-7.6,7.6c0,4.2,3.4,7.6,7.6,7.6c4.2,0,7.6-3.4,7.6-7.6
				C-204.9,243.3-208.3,239.9-212.5,239.9z"/>
		</g>
	</g>
	<g>
		<g>
			<rect x="-257.1" y="243.8" class="st0" width="6.5" height="3.9"/>
		</g>
	</g>
	<g>
		<g>
			<rect x="-202.9" y="243.8" class="st0" width="6.5" height="3.9"/>
		</g>
	</g>
	<g>
		<g>
			<path class="st0" d="M-229.7,249.9l-3.7-1.2c0.7-2.1,2.9-5.8,6.6-5.8c3.7,0,5.9,3.6,6.6,5.8l-3.7,1.2c-0.3-0.8-1.4-3.1-2.9-3.1
				C-228.3,246.8-229.4,249.1-229.7,249.9z"/>
		</g>
	</g>
</g>
<g>
	<polygon class="st0" points="-215.7,249.4 -216.2,248.9 -214.1,246.8 -212.4,244.9 -212,239.9 -211.4,240 -211.8,245.1 
		-213.6,247.2 	"/>
</g>
<g>
	
		<rect x="-214.8" y="244.8" transform="matrix(0.5301 0.848 -0.848 0.5301 107.3543 296.4429)" class="st0" width="2.1" height="0.6"/>
</g>
<g>
	<polygon class="st0" points="-208.7,248.6 -209.3,248.4 -208.5,246.1 -212.1,243.5 -214.4,243.2 -214.3,242.6 -211.8,242.9 
		-207.8,245.9 	"/>
</g>
<g>
	
		<rect x="-209.3" y="243.1" transform="matrix(0.8104 0.5858 -0.5858 0.8104 103.4222 168.7338)" class="st0" width="0.6" height="2"/>
</g>
<g>
	
		<rect x="-215.3" y="248.5" transform="matrix(0.3806 0.9247 -0.9247 0.3806 97.3424 352.3197)" class="st0" width="1.9" height="0.6"/>
</g>
</svg>
