<?xml version="1.0" encoding="utf-8"?>
<!-- Generator: Adobe Illustrator 19.1.0, SVG Export Plug-In . SVG Version: 6.00 Build 0)  -->
<svg version="1.1" id="Layer_1" xmlns="http://www.w3.org/2000/svg" xmlns:xlink="http://www.w3.org/1999/xlink" x="0px" y="0px"
	 viewBox="-160 266 290.7 261" style="enable-background:new -160 266 290.7 261;" xml:space="preserve">
<style type="text/css">
	.st0{fill:#FFFFFF;}
</style>
<g id="_x35_4Cx07_1_">
	<g>
		<path class="st0" d="M-107.4,398.7c0-2.7,0-5.4,0-8.2c0.1-0.5,0.2-0.9,0.2-1.4c0.3-6,1.2-12,2.8-17.8
			c5.2-19.6,15.8-35.8,31.6-48.6c14.5-11.7,31.1-18.3,49.7-20c8.6-0.8,17.1-0.3,25.5,1.4c20.4,4.1,37.5,13.8,51.3,29.3
			c14,15.8,21.7,34.3,23.1,55.4c0.6,8.9-0.1,17.6-2.1,26.3c-4.7,19.9-14.8,36.6-30.4,49.8c-14.8,12.5-31.9,19.7-51.3,21.4
			c-1.7,0.1-3.3,0.3-5,0.5c-2,0-4,0-6,0c-0.4-0.1-0.9-0.1-1.3-0.2c-4.9-0.6-9.8-0.8-14.6-1.8c-27.2-6-47.8-21.2-61.6-45.3
			c-6.5-11.3-10.2-23.5-11.3-36.5C-107.1,401.5-107.3,400.1-107.4,398.7z M-63.6,456.5c0.3,0.3,0.3,0.4,0.4,0.4
			c12.1,9.3,25.7,14.7,40.9,16.1c7.1,0.7,14.1,0.4,21.1-0.9c5.5-1,10.8-2.6,15.9-4.6c0.7-0.3,0.9-0.6,0.7-1.3
			c-0.4-1.6-0.6-3.3-0.9-4.9c-3.3-16.4-7.9-32.4-13.6-48c-0.7-1.9-1.4-3.8-2.2-5.8C-27.7,416.9-49.3,432.1-63.6,456.5z M-6.6,394.3
			c-2.1-4.3-4.1-8.4-6.1-12.6c-0.1-0.2-0.8-0.4-1.1-0.3c-2.1,0.5-4.2,1.2-6.3,1.7c-15.2,4-30.7,6.7-46.4,7.9
			c-8.6,0.7-17.2,0.8-25.9,1.2c-0.5,0-0.9,0-1.5,0c-0.3,21,6.4,39.3,20.1,55C-57.2,422.1-35.9,403.4-6.6,394.3z M-19.6,369
			c-0.2-0.4-0.4-0.7-0.5-1C-28.6,353-38,338.5-48,324.3c-0.6-0.8-1-0.8-1.8-0.4c-17.2,8.7-29.8,21.8-37.7,39.5
			c-2.1,4.8-3.7,9.8-4.8,15.1C-67.6,378.4-43.4,375.2-19.6,369z M36.9,335.7c-10.4-9.1-22.3-15.2-35.8-18.1
			c-11.5-2.5-23.1-2.3-34.7,0.5c10.8,14.8,20.6,30.1,29.3,46C9.7,360,32.1,344.5,36.9,335.7z M1.9,375.9c2.2,5,4.4,10,6.6,14.9
			c0.1,0.3,0.7,0.5,1,0.4c3-0.2,6-0.6,9.1-0.7c5.7-0.1,11.4-0.2,17,0c5.7,0.3,11.3,0.9,16.9,1.5c3.6,0.4,7.2,1.1,11,1.7
			c-0.4-18.3-6.3-34.6-17.7-48.9C33.8,359.3,18.7,368.8,1.9,375.9z M28.8,460c18.5-13.1,29.8-30.5,33.8-52.8
			c-16.2-4.5-32.4-5.9-49.1-3.3C20,422.1,25.3,440.7,28.8,460z"/>
	</g>
</g>
</svg>
