<?xml version="1.0" encoding="utf-8"?>
<!-- Generator: Adobe Illustrator 16.0.4, SVG Export Plug-In . SVG Version: 6.00 Build 0)  -->
<!DOCTYPE svg PUBLIC "-//W3C//DTD SVG 1.1//EN" "http://www.w3.org/Graphics/SVG/1.1/DTD/svg11.dtd">
<svg version="1.1" id="Layer_1" xmlns="http://www.w3.org/2000/svg" xmlns:xlink="http://www.w3.org/1999/xlink" x="0px" y="0px"
	 width="290.708px" height="261px" viewBox="0 0 290.708 261" enable-background="new 0 0 290.708 261" xml:space="preserve">
<g id="_x35_4Cx07_1_">
	<g>
		<path d="M52.582,132.674c0-2.719,0-5.439,0-8.16c0.072-0.47,0.188-0.938,0.211-1.41c0.304-6.04,1.242-11.985,2.802-17.822
			c5.24-19.616,15.767-35.839,31.556-48.579C101.653,45,118.276,38.392,136.822,36.724c8.559-0.77,17.084-0.32,25.531,1.363
			c20.353,4.057,37.494,13.822,51.252,29.302c14.021,15.776,21.717,34.298,23.104,55.404c0.584,8.876-0.101,17.648-2.124,26.298
			c-4.667,19.939-14.812,36.586-30.434,49.807c-14.814,12.535-31.947,19.668-51.301,21.402c-1.663,0.15-3.326,0.303-4.99,0.453
			c-2,0-4,0-6,0c-0.431-0.064-0.859-0.143-1.293-0.195c-4.865-0.594-9.82-0.785-14.583-1.842
			c-27.167-6.02-47.755-21.176-61.634-45.289c-6.493-11.279-10.186-23.502-11.326-36.48C52.9,135.521,52.73,134.1,52.582,132.674z
			 M96.369,190.541c0.252,0.297,0.295,0.369,0.355,0.416c12.078,9.287,25.712,14.662,40.871,16.09
			c7.073,0.666,14.129,0.357,21.135-0.918c5.471-0.998,10.771-2.557,15.927-4.639c0.69-0.279,0.875-0.611,0.71-1.346
			c-0.365-1.633-0.602-3.295-0.938-4.936c-3.34-16.352-7.86-32.369-13.578-48.049c-0.69-1.891-1.398-3.773-2.154-5.809
			C132.346,150.902,110.715,166.07,96.369,190.541z M153.416,128.29c-2.061-4.254-4.074-8.45-6.15-12.616
			c-0.124-0.249-0.78-0.431-1.114-0.347c-2.124,0.534-4.22,1.182-6.341,1.736c-15.24,3.988-30.711,6.707-46.414,7.917
			c-8.601,0.662-17.238,0.847-25.859,1.243c-0.462,0.021-0.925,0.002-1.511,0.002c-0.272,21.044,6.405,39.294,20.127,54.957
			C102.762,156.146,124.115,137.391,153.416,128.29z M140.448,102.972c-0.217-0.418-0.351-0.697-0.503-0.966
			c-8.535-15.053-17.924-29.556-27.942-43.66c-0.57-0.804-1.01-0.817-1.835-0.4c-17.243,8.7-29.816,21.845-37.653,39.498
			c-2.136,4.812-3.706,9.813-4.792,15.134C92.406,112.354,116.571,109.158,140.448,102.972z M196.854,69.695
			c-10.354-9.107-22.266-15.18-35.767-18.052c-11.549-2.457-23.087-2.304-34.737,0.496c10.807,14.84,20.584,30.107,29.309,45.999
			C169.739,93.962,192.07,78.547,196.854,69.695z M161.872,109.893c2.204,5.01,4.37,9.966,6.588,14.898
			c0.114,0.256,0.672,0.468,1.006,0.445c3.028-0.207,6.049-0.624,9.077-0.685c5.672-0.114,11.357-0.236,17.02,0.026
			c5.656,0.263,11.301,0.91,16.933,1.545c3.638,0.411,7.244,1.103,11.003,1.69c-0.379-18.302-6.26-34.556-17.732-48.875
			C193.82,93.274,178.68,102.802,161.872,109.893z M188.773,193.955c18.494-13.066,29.754-30.518,33.775-52.838
			c-16.161-4.502-32.421-5.865-49.089-3.348C180.037,156.111,185.266,174.674,188.773,193.955z"/>
	</g>
</g>
</svg>
