<?xml version="1.0" encoding="utf-8"?>
<!-- Generator: Adobe Illustrator 19.1.0, SVG Export Plug-In . SVG Version: 6.00 Build 0)  -->
<svg version="1.1" id="Layer_1" xmlns="http://www.w3.org/2000/svg" xmlns:xlink="http://www.w3.org/1999/xlink" x="0px" y="0px"
	 viewBox="135 94.2 612 170.8" style="enable-background:new 135 94.2 612 170.8;" xml:space="preserve">
<style type="text/css">
	.st0{fill:#D3372C;}
</style>
<g>
	<path class="st0" d="M738.5,132.2c-1.9-2.1-4.9-2.3-7-0.5c-2.1,1.9-2.3,4.9-0.5,7c7,8,8,18,3.1,29.8c-3.7,8.9-9.8,16.2-11.2,17.7
		c-6.2,5.6-13.1,9.4-20.3,12.3c2.9-7.1,6.3-15.3,10.2-25.1c1.2-2.3,2.2-4.6,2.7-6.8c2-4.8,3.9-9.9,6.1-15.3c1-2.5-0.2-5.3-2.7-6.3
		c-2.5-1-5.3,0.2-6.3,2.7c-3.2,8-6,15.1-8.6,21.7c-4.3,7.6-12.5,16.3-19.1,17.8c-2.6,0.5-4.4-0.2-6-2.4c-8.7-11.6,2.5-29.9,2.6-30.1
		c1.4-2.3,0.8-5.3-1.5-6.8c-2.3-1.4-5.3-0.8-6.8,1.5c-0.7,1-14.8,24.2-2.1,41.2c3.2,4.3,7.6,6.5,12.6,6.4c1.1,0,2.1-0.2,3.2-0.4
		c2.5-0.5,4.8-1.4,7-2.7c-1.2,3.1-2.5,5.9-3.6,8.5c-5.6,1.4-10.9,2.6-15.9,3.6c-12,2.5-22.5,4.5-28.4,10.6c-5.1,4.6-7,11-5.3,17.7
		c2,7.6,8.5,13.8,16.3,15.6c1.4,0.3,3.2,0.5,5.1,0.5c5.7-0.1,13.3-2.4,20.8-11.4c1.3-1.4,4.3-4.8,14.6-28.3
		c10.9-3.4,22.1-8.4,32-17.3c1.2-1.1,8.6-9.4,13.4-20.5C749.6,157.2,748,143.2,738.5,132.2z M675.8,232.1c-0.1,0.1-0.1,0.2-0.2,0.2
		c-5.2,6.2-11,9-16.5,7.7c-4.3-1-8-4.5-9-8.5c-0.5-2.2-0.5-5.2,2.5-8.1c0.1-0.1,0.2-0.2,0.2-0.2c3.8-4,13-5.8,23.4-8
		c2.9-0.7,5.9-1.2,9-1.9C679,228.1,676.6,231.5,675.8,232.1z"/>
	<path class="st0" d="M264,191.7c0.3-0.1,0.4-0.1,0.5-0.1c-0.3,0-1.5,0.1-2.6-1.1c-0.3-1.2,0.3-4.8,0.7-7.3c0.5-3.9,1.4-8.5,1-12.8
		c-1-8.5-7.1-14.2-9.6-16.1l-10.8,3.1c0,0.1,0,0.2,0,0.3c0.3,15.4-10,27.8-33.2,39.5c18.5-39.3,38-85.3,39.3-88.4
		c1-2.5,0-5.2-2.4-6.3c-2.4-1.1-5.2-0.1-6.4,2.3c-10.9,21.9-33.6,56.6-48.4,56.9c-0.4,0-0.9,0-1.4,0c4.5-6.3,7-13.5,6.9-20.3
		c-0.2-11.4-9.6-20.5-17.3-20.4c-18.3,0.3-20.8,15.3-20.6,24.2c0.1,8.2,4.4,15.5,12.1,20.4c0.3,0.2,0.5,0.3,0.9,0.5
		c-6.9,4.7-15.7,8-25.4,8.2c-2.7,0.1-4.8,2.3-4.9,4.9c0,2.6,2.3,4.8,4.9,4.9c14.3-0.2,26.7-5.8,35.6-13.7c3.2,0.8,6.3,1.2,9.4,1.1
		c8.6-0.2,17.7-6.6,25.8-15.4c-15.5,34.8-34.9,76.4-43.7,87.7c-7.6,9-16,13.1-22,10.9c-4.6-1.6-7.4-6.4-7.5-12.6
		c-0.1-7,19.2-14.7,33.2-20.3c2.5-1,3.7-3.9,2.7-6.4c-1-2.5-3.9-3.7-6.4-2.7c-20.4,8.1-39.7,15.8-39.5,29.5
		c0.2,10.1,5.8,18.7,13.9,21.7c1.6,0.5,4,1.1,7.2,1.1c6.4-0.1,15.6-3.1,25.7-15l0.1-0.1c4.9-6.2,12.9-21,21.4-38.8
		c0.2-0.1,0.5-0.1,0.8-0.2c20.3-8.8,43.3-21.7,47.8-43.9c0.9,1.4,1.5,2.9,1.6,4.8c0.4,2.9-0.2,6.5-0.8,10c-1,5.8-1.9,11.2,1.4,15
		c3.3,3.8,7.4,4.8,10.2,4.7c0.7,0,1.3-0.1,1.7-0.2L264,191.7z M180.2,158.9c-5.8-2.6-10.8-7.1-10.9-14.1c-0.2-12.3,5.1-14.1,11-14.3
		c1.7-0.1,7.2,4.4,7.3,10.8C187.6,147.1,185,153.5,180.2,158.9z"/>
	<g>
		<path class="st0" d="M434.9,137.1c-0.9-2.5-3.7-3.8-6.3-3.1c-6.8,2.3-13.5,4.6-19.6,6.8c5.4-10.4,9.8-18.6,9.9-18.9
			c1.2-2.4,0.4-5.3-2-6.6c-2.4-1.2-5.3-0.4-6.6,2c-0.5,1-7.4,13.9-14.6,27.9c-9.8,3.3-16.6,5.3-16.7,5.3c-2.6,0.9-3.9,3.6-3.3,6.2
			c0.7,2.1,2.7,3.4,4.8,3.5c0.4,0,1-0.1,1.4-0.2c0.1,0,2.7-0.9,7.3-2.3c-2.3,4.5-4.4,8.5-6,12.1c-2.8,5.7-17.3,21.1-24.8,21.4
			c-1,0.1-1.6-0.1-2.4-1.4c-3.1-5,4.9-15.6,9.2-21.4c4.3-5.7,7-9.4,4.6-13.2c-1.1-1.6-3.4-3.3-7.8-2.2c-3.4,0.9-26.9,8.2-26.9,8.2
			c-6.4,15.6-16.5,30.3-26.2,30.4c-1,0-2.3-0.1-2.8-0.8c-1-1.2-0.8-4.5-0.2-6.3c0.1-0.2,0.1-0.4,0.1-0.7c0.4-1,1-2,1.4-3.1
			c1.3-3.1,2.7-5.8,3.8-8.3c4.6-9.5,7.1-14.8,4.3-19.1c-1-1.5-3.2-3.4-7.3-3.4c-11.2,0.2-26.8,6.9-33.7,24.6
			c-3.9,9.9-1.5,15.8,0.3,18.4c2.3,3.3,5.9,5.2,9.7,5.1c0.2,0,0.5,0,0.8,0s0.4,0,0.7,0c3.5-0.1,7.3-0.5,11.1-3.4
			c0.3,0.7,0.8,1.2,1.2,1.9c1.7,2.2,4.8,4.7,10.7,4.6c15.5-0.3,26.7-18.4,32.8-31.6c2-0.8,7.3-2.8,13.7-4.8
			c-6.2,8.4-13.6,20.1-7.8,29.8c2.5,4,6.2,6.3,10.8,6.1c0.1,0,0.2,0,0.3,0c6.1-0.2,13.2-4.7,19.1-10.1c0.4,1.3,1.1,2.5,2.1,3.5
			c3.3,3.8,8.3,4.6,12.2,4.6c2.7,0.1,4.9-0.2,5.7-0.4c2.6-0.7,4.3-3.2,3.7-5.9c-0.7-2.6-3.2-4.3-5.9-3.7c-2.9,0.7-7.3,0.5-8.3-0.7
			c-0.4-0.4-0.7-2.4,1-6.3c0.8-1.9,2.2-4.6,3.6-7.7c2.8-5.9,6.8-13.3,10.6-20.8c8.4-2.8,18.7-6.3,29.3-9.9
			C434.3,142.6,435.6,139.7,434.9,137.1z M298.3,176.9c-5.1,11.7-9.2,11.8-13,11.7c-0.3,0-0.7,0-1,0c-0.4,0-1.1-0.2-1.5-0.9
			c-0.4-0.7-1.7-3.3,0.7-9.3c5.7-14.3,17.3-17.5,22.5-18.2c-0.9,2.2-2.4,5.4-3.7,8.3C300.9,170.9,299.6,173.7,298.3,176.9z"/>
	</g>
	<g>
		<path class="st0" d="M657.7,187.6c-0.4,0-1.4-0.1-2.3-1.2c-0.4-1.2,0.2-5.3,0.7-8.2c0.7-4.1,1.3-8.9,0.9-13.4
			c-0.9-7.8-5.7-13.4-8.5-16l-10.8,3.1c-5,19.8-16.5,31.6-30.8,31.9c-0.4,0-1.4-0.5-2.4-1.7c-2.3-2.9-3.9-8.7-2.5-13.6
			c1.5-5.3,6.1-11,9.9-12.3c1.3-0.4,1.9-0.1,2.2,0.1c3.1,2.3-0.8,8.8-0.9,8.8c-1.4,2.3-0.8,5.3,1.5,6.8c2.3,1.4,5.3,0.8,6.8-1.5
			c3.1-4.9,6.6-15.6-1.5-21.8c-3.2-2.4-7.2-3.1-11.2-1.6c-7.7,2.6-13.9,11.4-16.1,19c-0.8,2.7-1.1,5.7-0.8,8.6l-22.5,8.2
			c6-14.1,13.7-33.3,24.1-59.9v-0.1c1.1-3.1,4.3-4,6.5-3.5c3.2,0.7,4.6,3.9,3.9,8.6c-0.3,2.7,1.5,5.1,4.3,5.6
			c2.7,0.3,5.1-1.5,5.6-4.3c1.4-12-5.2-18-11.4-19.4c-7.7-1.9-15.4,2.3-18.1,9.7c-6,15.3-11,28.2-15.5,38.9
			c-12.1,5.3-27.4,11.9-41.5,17.3c5.6-13.3,12.5-30.5,21.3-53v-0.1c1.1-3.1,4.3-4,6.5-3.5c3.2,0.7,4.6,3.9,3.9,8.6
			c-0.3,2.7,1.5,5.1,4.3,5.6c2.7,0.3,5.1-1.5,5.6-4.3c1.4-12-5.2-18-11.4-19.4c-7.7-1.9-15.4,2.3-18.1,9.7
			c-10.8,27.7-18.7,47.3-24.7,61.2c-9.8,3.6-18.2,6.2-23.3,7.1c-0.4-0.1-0.9-0.2-1.4-0.2c-1.3,0-2.4-1.2-2.8-1.7
			c-1.7-2.2-2.7-6.2-1.5-10.4c2-6.3,6.6-14.1,10.9-16.1c1.3-0.7,2.1-0.5,2.7-0.2c1.9,0.9,2.9,2,3.4,3.3c0.5,1.6-0.3,3.7-0.7,4.3
			c-1.4,2.3-0.8,5.3,1.6,6.8c2.3,1.4,5.3,0.8,6.8-1.6c0.3-0.5,3.5-6,1.6-12c-0.9-2.7-2.8-6.6-8.5-9.5c-0.1,0-0.2-0.1-0.3-0.1
			c-3.5-1.4-7.2-1.4-10.8,0.3c-7.4,3.5-12.8,12.9-15.1,19.4c-0.4,0.5-0.8,1.1-1,1.7c-0.2,0.9-0.4,1.7-0.7,2.6
			c-0.7,0.1-1.3,0.3-1.9,0.8c-0.7,0.3-2.6,1.3-4.6,2.2c-4.3,2-8.8,4.3-13.5,6.4c13.6-33.7,27.7-70.7,32-82.5
			c0.9-2.5-0.3-5.3-2.8-6.3c-2-0.8-4.1-0.1-5.4,1.4c-0.5,0.5-1,1.1-1.2,1.9c0,0.1-2.7,7.1-8.1,14.5c-4.7,6.5-12.4,14.8-22.5,16.8
			c-2.6,0.5-4.4,3.1-3.9,5.8c0.5,2.4,2.6,4,4.9,4c0.3,0,0.5,0,0.9-0.1c6.1-1.2,11.6-4,16.1-7.5c-8.2,21-16.2,41.4-23.3,58.7
			c-20.7,10.4-40.8,21.4-47.5,28.2c-5.8,5.1-8,13.2-5.8,21.3c2.2,8.2,8.2,14.6,15.4,16.2c1.1,0.2,2.5,0.4,4,0.3
			c4.8,0,11.6-2.2,18.5-10.6c4.1-4.5,13.1-24.4,23-48.5c7-3.5,14.8-7.2,23.2-11.2c0.9-0.4,1.7-0.9,2.4-1.2c1.6,7.8,6.8,13.2,13,13.2
			c4.4,0,11.8-2.1,20.7-4.9c-7.6,17.1-10.2,21-11.1,21.9c-0.1,0.1-0.1,0.2-0.2,0.2c-4.5,5.2-9,7.8-13,6.9c-2.6-0.5-5.2,1.1-5.8,3.7
			s1.1,5.2,3.7,5.8c1.1,0.2,2.4,0.3,3.9,0.3c4.8,0,11.4-2.2,18.5-10.6c1.3-1.4,4.6-5.2,16.5-33c15-5.6,31.3-12.3,41.5-16.8
			c-14.8,35.7-19.1,42.3-20.2,43.4c-0.1,0.1-0.1,0.2-0.2,0.2c-4.5,5.2-9,7.8-13,6.9c-2.6-0.5-5.2,1.1-5.8,3.7s1.1,5.2,3.7,5.8
			c1.1,0.2,2.4,0.3,3.9,0.3c4.8,0,11.4-2.2,18.5-10.6c1.2-1.3,4-4.7,13.5-26.2l30.2-11c0.8,1.5,1.6,2.9,2.5,4.3
			c2.9,3.6,6.4,5.7,10.2,5.6c17.1-0.3,31.4-12.8,38.3-33c0.9,1.4,1.6,3.3,1.7,5.3c0.4,3.3-0.2,7.1-0.8,10.9c-1,6-1.7,11.7,1.3,15.6
			c3.3,4,7.4,5.1,10.4,5c0.7,0,1.3-0.1,1.9-0.2L657.7,187.6z M419.6,238.2c-0.1,0.1-0.1,0.2-0.2,0.2c-4.5,5.3-9,7.8-13,6.9
			c-3.6-0.8-6.8-4.5-8.1-9c-1.1-4.6-0.1-8.9,2.9-11.7c0.1-0.1,0.2-0.2,0.3-0.2c4.1-4.1,15.7-11.3,34.8-21.3
			C428.2,222.4,422,235.6,419.6,238.2z"/>
		<path class="st0" d="M657.7,187.6L657.7,187.6c0.1,0,0.2,0,0.2,0C657.9,187.6,657.7,187.6,657.7,187.6z"/>
	</g>
</g>
</svg>
