<?xml version="1.0" encoding="utf-8"?>
<!-- Generator: Adobe Illustrator 19.1.0, SVG Export Plug-In . SVG Version: 6.00 Build 0)  -->
<svg version="1.1" id="Layer_1" xmlns="http://www.w3.org/2000/svg" xmlns:xlink="http://www.w3.org/1999/xlink" x="0px" y="0px"
	 viewBox="135 47 612 250" style="enable-background:new 135 47 612 250;" xml:space="preserve">
<style type="text/css">
	.st0{fill:#24203E;}
</style>
<g>
	<path class="st0" d="M714.2,128.1c-1.7-1.9-4.5-2.1-6.4-0.5c-1.9,1.7-2.1,4.5-0.5,6.4c6.4,7.3,7.3,16.5,2.8,27.3
		c-3.4,8.2-9,14.9-10.3,16.2c-5.7,5.1-12,8.6-18.6,11.3c2.7-6.5,5.8-14,9.4-23c1.1-2.1,2-4.2,2.5-6.2c1.8-4.4,3.6-9.1,5.6-14
		c0.9-2.3-0.2-4.9-2.5-5.8c-2.3-0.9-4.9,0.2-5.8,2.5c-2.9,7.3-5.5,13.9-7.9,19.9c-3.9,7-11.5,15-17.5,16.3c-2.4,0.5-4-0.2-5.5-2.2
		c-8-10.6,2.3-27.4,2.4-27.6c1.3-2.1,0.7-4.9-1.4-6.2c-2.1-1.3-4.9-0.7-6.2,1.4c-0.6,0.9-13.6,22.2-1.9,37.8c2.9,3.9,7,6,11.6,5.9
		c1,0,1.9-0.2,2.9-0.4c2.3-0.5,4.4-1.3,6.4-2.5c-1.1,2.8-2.3,5.4-3.3,7.8c-5.1,1.3-10,2.4-14.6,3.3c-11,2.3-20.6,4.1-26.1,9.7
		c-4.7,4.2-6.4,10.1-4.9,16.2c1.8,7,7.8,12.7,15,14.3c1.3,0.3,2.9,0.5,4.7,0.5c5.2-0.1,12.2-2.2,19.1-10.5c1.2-1.3,3.9-4.4,13.4-26
		c10-3.1,20.3-7.7,29.4-15.9c1.1-1,7.9-8.6,12.3-18.8C724.4,151,722.9,138.2,714.2,128.1z M656.7,219.8c-0.1,0.1-0.1,0.2-0.2,0.2
		c-4.8,5.7-10.1,8.3-15.1,7.1c-3.9-0.9-7.3-4.1-8.3-7.8c-0.5-2-0.5-4.8,2.3-7.4c0.1-0.1,0.2-0.2,0.2-0.2c3.5-3.7,11.9-5.3,21.5-7.3
		c2.7-0.6,5.4-1.1,8.3-1.7C659.6,216.1,657.4,219.2,656.7,219.8z"/>
	<path class="st0" d="M278.8,182.7c0.3-0.1,0.4-0.1,0.5-0.1c-0.3,0-1.4,0.1-2.4-1c-0.3-1.1,0.3-4.4,0.6-6.7
		c0.5-3.6,1.3-7.8,0.9-11.7c-0.9-7.8-6.5-13-8.8-14.8l-9.9,2.8c0,0.1,0,0.2,0,0.3c0.3,14.1-9.2,25.5-30.5,36.2
		c17-36.1,34.9-78.3,36.1-81.1c0.9-2.3,0-4.8-2.2-5.8c-2.2-1-4.8-0.1-5.9,2.1c-10,20.1-30.8,51.9-44.4,52.2c-0.4,0-0.8,0-1.3,0
		c4.1-5.8,6.4-12.4,6.3-18.6c-0.2-10.5-8.8-18.8-15.9-18.7c-16.8,0.3-19.1,14-18.9,22.2c0.1,7.5,4,14.2,11.1,18.7
		c0.3,0.2,0.5,0.3,0.8,0.5c-6.3,4.3-14.4,7.3-23.3,7.5c-2.5,0.1-4.4,2.1-4.5,4.5c0,2.4,2.1,4.4,4.5,4.5c13.1-0.2,24.5-5.3,32.7-12.6
		c2.9,0.7,5.8,1.1,8.6,1c7.9-0.2,16.2-6.1,23.7-14.1c-14.2,31.9-32,70.1-40.1,80.5c-7,8.3-14.7,12-20.2,10
		c-4.2-1.5-6.8-5.9-6.9-11.6c-0.1-6.4,17.6-13.5,30.5-18.6c2.3-0.9,3.4-3.6,2.5-5.9c-0.9-2.3-3.6-3.4-5.9-2.5
		c-18.7,7.4-36.4,14.5-36.2,27.1c0.2,9.3,5.3,17.2,12.8,19.9c1.5,0.5,3.7,1,6.6,1c5.9-0.1,14.3-2.8,23.6-13.8l0.1-0.1
		c4.5-5.7,11.8-19.3,19.6-35.6c0.2-0.1,0.5-0.1,0.7-0.2c18.6-8.1,39.7-19.9,43.9-40.3c0.8,1.3,1.4,2.7,1.5,4.4
		c0.4,2.7-0.2,6-0.7,9.2c-0.9,5.3-1.7,10.3,1.3,13.8c3,3.5,6.8,4.4,9.4,4.3c0.6,0,1.2-0.1,1.6-0.2L278.8,182.7z M201.9,152.6
		c-5.3-2.4-9.9-6.5-10-12.9c-0.2-11.3,4.7-12.9,10.1-13.1c1.6-0.1,6.6,4,6.7,9.9C208.7,141.8,206.3,147.6,201.9,152.6z"/>
	<g>
		<path class="st0" d="M435.6,132.6c-0.8-2.3-3.4-3.5-5.8-2.8c-6.2,2.1-12.4,4.2-18,6.2c5-9.5,9-17.1,9.1-17.3
			c1.1-2.2,0.4-4.9-1.8-6.1c-2.2-1.1-4.9-0.4-6.1,1.8c-0.5,0.9-6.8,12.8-13.4,25.6c-9,3-15.2,4.9-15.3,4.9c-2.4,0.8-3.6,3.3-3,5.7
			c0.6,1.9,2.5,3.1,4.4,3.2c0.4,0,0.9-0.1,1.3-0.2c0.1,0,2.5-0.8,6.7-2.1c-2.1,4.1-4,7.8-5.5,11.1c-2.6,5.2-15.9,19.4-22.8,19.6
			c-0.9,0.1-1.5-0.1-2.2-1.3c-2.8-4.6,4.5-14.3,8.4-19.6c3.9-5.2,6.4-8.6,4.2-12.1c-1-1.5-3.1-3-7.2-2c-3.1,0.8-24.7,7.5-24.7,7.5
			c-5.9,14.3-15.1,27.8-24,27.9c-0.9,0-2.1-0.1-2.6-0.7c-0.9-1.1-0.7-4.1-0.2-5.8c0.1-0.2,0.1-0.4,0.1-0.6c0.4-0.9,0.9-1.8,1.3-2.8
			c1.2-2.8,2.5-5.3,3.5-7.6c4.2-8.7,6.5-13.6,3.9-17.5c-0.9-1.4-2.9-3.1-6.7-3.1c-10.3,0.2-24.6,6.3-30.9,22.6
			c-3.6,9.1-1.4,14.5,0.3,16.9c2.1,3,5.4,4.8,8.9,4.7c0.2,0,0.5,0,0.7,0c0.2,0,0.4,0,0.6,0c3.2-0.1,6.7-0.5,10.2-3.1
			c0.3,0.6,0.7,1.1,1.1,1.7c1.6,2,4.4,4.3,9.8,4.2c14.2-0.3,24.5-16.9,30.1-29c1.8-0.7,6.7-2.6,12.6-4.4
			c-5.7,7.7-12.5,18.4-7.2,27.3c2.3,3.7,5.7,5.8,9.9,5.6c0.1,0,0.2,0,0.3,0c5.6-0.2,12.1-4.3,17.5-9.3c0.4,1.2,1,2.3,1.9,3.2
			c3,3.5,7.6,4.2,11.2,4.2c2.5,0.1,4.5-0.2,5.2-0.4c2.4-0.6,3.9-2.9,3.4-5.4c-0.6-2.4-2.9-3.9-5.4-3.4c-2.7,0.6-6.7,0.5-7.6-0.6
			c-0.4-0.4-0.6-2.2,0.9-5.8c0.7-1.7,2-4.2,3.3-7.1c2.6-5.4,6.2-12.2,9.7-19.1c7.7-2.6,17.2-5.8,26.9-9.1
			C435.1,137.6,436.3,135,435.6,132.6z M310.3,169.1c-4.7,10.7-8.4,10.8-11.9,10.7c-0.3,0-0.6,0-0.9,0c-0.4,0-1-0.2-1.4-0.8
			c-0.4-0.6-1.6-3,0.6-8.5c5.2-13.1,15.9-16.1,20.6-16.7c-0.8,2-2.2,5-3.4,7.6C312.7,163.6,311.5,166.2,310.3,169.1z"/>
	</g>
	<g>
		<path class="st0" d="M640.1,178.9c-0.4,0-1.3-0.1-2.1-1.1c-0.4-1.1,0.2-4.9,0.6-7.5c0.6-3.8,1.2-8.2,0.8-12.3
			c-0.8-7.2-5.2-12.3-7.8-14.7l-9.9,2.8c-4.6,18.2-15.1,29-28.3,29.3c-0.4,0-1.3-0.5-2.2-1.6c-2.1-2.7-3.6-8-2.3-12.5
			c1.4-4.9,5.6-10.1,9.1-11.3c1.2-0.4,1.7-0.1,2,0.1c2.8,2.1-0.7,8.1-0.8,8.1c-1.3,2.1-0.7,4.9,1.4,6.2s4.9,0.7,6.2-1.4
			c2.8-4.5,6.1-14.3-1.4-20c-2.9-2.2-6.6-2.8-10.3-1.5c-7.1,2.4-12.8,10.5-14.8,17.4c-0.7,2.5-1,5.2-0.7,7.9l-20.6,7.5
			c5.5-12.9,12.6-30.6,22.1-55l0-0.1c1-2.8,3.9-3.7,6-3.2c2.9,0.6,4.2,3.6,3.6,7.9c-0.3,2.5,1.4,4.7,3.9,5.1
			c2.5,0.3,4.7-1.4,5.1-3.9c1.3-11-4.8-16.5-10.5-17.8c-7.1-1.7-14.1,2.1-16.6,8.9c-5.5,14-10.1,25.9-14.2,35.7
			c-11.1,4.9-25.1,10.9-38.1,15.9c5.1-12.2,11.5-28,19.5-48.6l0-0.1c1-2.8,3.9-3.7,6-3.2c2.9,0.6,4.2,3.6,3.6,7.9
			c-0.3,2.5,1.4,4.7,3.9,5.1c2.5,0.3,4.7-1.4,5.1-3.9c1.3-11-4.8-16.5-10.5-17.8c-7.1-1.7-14.1,2.1-16.6,8.9
			c-9.9,25.4-17.2,43.4-22.7,56.2c-9,3.3-16.7,5.7-21.4,6.5c-0.4-0.1-0.8-0.2-1.3-0.2c-1.2,0-2.2-1.1-2.6-1.6
			c-1.6-2-2.5-5.7-1.4-9.5c1.8-5.8,6.1-12.9,10-14.8c1.2-0.6,1.9-0.5,2.5-0.2c1.7,0.8,2.7,1.8,3.1,3c0.5,1.5-0.3,3.4-0.6,3.9
			c-1.3,2.1-0.7,4.9,1.5,6.2c2.1,1.3,4.9,0.7,6.2-1.5c0.3-0.5,3.2-5.5,1.5-11c-0.8-2.5-2.6-6.1-7.8-8.7c-0.1,0-0.2-0.1-0.3-0.1
			c-3.2-1.3-6.6-1.3-9.9,0.3c-6.8,3.2-11.7,11.8-13.9,17.8c-0.4,0.5-0.7,1-0.9,1.6c-0.2,0.8-0.4,1.6-0.6,2.4
			c-0.6,0.1-1.2,0.3-1.7,0.7c-0.6,0.3-2.4,1.2-4.2,2c-3.9,1.8-8.1,3.9-12.4,5.9c12.5-30.9,25.4-64.9,29.4-75.7
			c0.8-2.3-0.3-4.9-2.6-5.8c-1.8-0.7-3.8-0.1-5,1.3c-0.5,0.5-0.9,1-1.1,1.7c0,0.1-2.5,6.5-7.4,13.3c-4.3,6-11.4,13.6-20.6,15.4
			c-2.4,0.5-4,2.8-3.6,5.3c0.5,2.2,2.4,3.7,4.5,3.7c0.3,0,0.5,0,0.8-0.1c5.6-1.1,10.6-3.7,14.8-6.9c-7.5,19.3-14.9,38-21.4,53.9
			c-19,9.5-37.4,19.6-43.6,25.9c-5.3,4.7-7.3,12.1-5.3,19.5c2,7.5,7.5,13.4,14.1,14.9c1,0.2,2.3,0.4,3.7,0.3c4.4,0,10.6-2,17-9.7
			c3.8-4.1,12-22.4,21.1-44.5c6.4-3.2,13.6-6.6,21.3-10.3c0.8-0.4,1.6-0.8,2.2-1.1c1.5,7.2,6.2,12.1,11.9,12.1c4,0,10.8-1.9,19-4.5
			c-7,15.7-9.4,19.3-10.2,20.1c-0.1,0.1-0.1,0.2-0.2,0.2c-4.1,4.8-8.3,7.2-11.9,6.3c-2.4-0.5-4.8,1-5.3,3.4c-0.5,2.4,1,4.8,3.4,5.3
			c1,0.2,2.2,0.3,3.6,0.3c4.4,0,10.5-2,17-9.7c1.2-1.3,4.2-4.8,15.1-30.3c13.8-5.1,28.7-11.3,38.1-15.4
			c-13.6,32.8-17.5,38.8-18.5,39.8c-0.1,0.1-0.1,0.2-0.2,0.2c-4.1,4.8-8.3,7.2-11.9,6.3c-2.4-0.5-4.8,1-5.3,3.4
			c-0.5,2.4,1,4.8,3.4,5.3c1,0.2,2.2,0.3,3.6,0.3c4.4,0,10.5-2,17-9.7c1.1-1.2,3.7-4.3,12.4-24l27.7-10.1c0.7,1.4,1.5,2.7,2.3,3.9
			c2.7,3.3,5.9,5.2,9.4,5.1c15.7-0.3,28.8-11.7,35.1-30.3c0.8,1.3,1.5,3,1.6,4.9c0.4,3-0.2,6.5-0.7,10c-0.9,5.5-1.6,10.7,1.2,14.3
			c3,3.7,6.8,4.7,9.5,4.6c0.6,0,1.2-0.1,1.7-0.2L640.1,178.9z M421.6,225.4c-0.1,0.1-0.1,0.2-0.2,0.2c-4.1,4.9-8.3,7.2-11.9,6.3
			c-3.3-0.7-6.2-4.1-7.4-8.3c-1-4.2-0.1-8.2,2.7-10.7c0.1-0.1,0.2-0.2,0.3-0.2c3.8-3.8,14.4-10.4,31.9-19.5
			C429.5,210.9,423.8,223,421.6,225.4z"/>
		<path class="st0" d="M640.1,178.9L640.1,178.9c0.1,0,0.2,0,0.2,0C640.2,178.9,640.1,178.9,640.1,178.9z"/>
	</g>
</g>
</svg>
