<?xml version="1.0" encoding="utf-8"?>
<!-- Generator: Adobe Illustrator 19.1.0, SVG Export Plug-In . SVG Version: 6.00 Build 0)  -->
<svg version="1.1" id="Layer_1" xmlns="http://www.w3.org/2000/svg" xmlns:xlink="http://www.w3.org/1999/xlink" x="0px" y="0px"
	 viewBox="0 127 612 539" style="enable-background:new 0 127 612 539;" xml:space="preserve">
<style type="text/css">
	.st0{fill:#212944;}
	.st1{fill:#F05C50;}
</style>
<g>
	<g>
		<path class="st0" d="M178.3,452.1c-1-0.9-2.4-1.2-3.8-1c-2.7,0.5-5,3.1-5,5.9l-0.3,27.9c0,4.6-3.8,9-8.4,9.8
			c-3.3,0.6-6.2-1.1-7.2-4.2c-0.4-1.3-1.3-2.3-2.4-2.8c-1.3-0.6-2.8-0.5-4.3,0.2c-2.6,1.3-4,4.4-3.2,7c2.1,6.6,7.7,10.6,14.6,10.6
			c1,0,2-0.1,3-0.2c10-1.6,18.2-11.3,18.3-21.6l0.3-27.9C179.9,454.3,179.4,453,178.3,452.1z"/>
		<path class="st0" d="M225.2,453.5L225.2,453.5c2.7-0.4,4.9-3,5-5.9c0-1.4-0.6-2.8-1.6-3.6c-1-0.9-2.4-1.2-3.8-1l-22.2,3.6h-0.1
			c-2.8,0.5-5,3-5,5.9l-0.5,41.4c0,1.4,0.6,2.8,1.6,3.6c0.8,0.7,1.8,1.1,2.9,1.1c0.3,0,0.6,0,0.8-0.1l22.2-3.7c2.7-0.4,4.9-3,5-5.9
			c0-1.5-0.6-2.8-1.6-3.7c-1-0.9-2.4-1.2-3.8-1l-14,2.3c-1.5,0.2-2.8-0.9-2.8-2.4l0.1-5.2c0-1.2,0.9-2.2,2-2.3l12.7-2.1
			c2.8-0.5,5-3,5-5.8c0-1.5-0.5-2.8-1.5-3.7c-1-0.9-2.4-1.3-3.8-1l-11.2,2c-1.5,0.2-2.8-0.9-2.8-2.4l0.1-5.2c0-1.2,0.9-2.2,2-2.3
			L225.2,453.5z"/>
		<path class="st0" d="M276.4,436c-1-0.9-2.4-1.3-3.8-1l-22.2,3.6h-0.1c-2.8,0.5-5,3-5,5.9l-0.5,41.4c0,1.4,0.5,2.7,1.5,3.6
			c0.8,0.7,1.9,1.1,3,1.1c0.3,0,0.5,0,0.8-0.1c2.8-0.5,5-3,5-5.8l0.2-13.6c0-1.2,0.9-2.2,2-2.3l12.7-2.1c2.7-0.4,4.9-3,5-5.9
			c0-1.5-0.6-2.8-1.6-3.6c-1-0.9-2.4-1.2-3.8-1l-11.4,1.9c-1.5,0.2-2.8-0.9-2.8-2.4l0.1-5.2c0-1.2,0.9-2.2,2-2.3l15.3-2.5
			c2.8-0.5,5-3.1,5-5.9C277.9,438.2,277.4,436.9,276.4,436z"/>
		<path class="st0" d="M324.6,428.1c-1-0.9-2.4-1.3-3.8-1l-22.2,3.6h-0.1c-2.8,0.5-5,3-5,5.9L293,478c0,1.4,0.5,2.8,1.5,3.6
			c0.8,0.7,1.9,1.1,3,1.1c0.3,0,0.5,0,0.8-0.1c2.8-0.5,5-3,5-5.8l0.2-13.6c0-1.2,0.9-2.2,2-2.3l12.7-2.1c2.7-0.4,4.9-3,5-5.9
			c0-1.5-0.6-2.8-1.6-3.7c-1-0.9-2.4-1.2-3.8-1l-11.2,1.8c-1.5,0.2-2.8-0.9-2.8-2.4l0.1-5.2c0-1.2,0.9-2.2,2-2.3l15.3-2.5
			c2.8-0.5,5-3.1,5-5.9C326.1,430.3,325.6,429,324.6,428.1z"/>
		<path class="st0" d="M369.3,429.8c2.7-0.4,4.9-3,5-5.9c0-1.4-0.6-2.8-1.6-3.6c-1-0.9-2.4-1.2-3.8-1l-22.2,3.6h-0.1
			c-2.8,0.5-5,3-5,5.9l-0.5,41.4c0,1.4,0.6,2.8,1.6,3.6c0.8,0.7,1.8,1.1,2.9,1.1c0.3,0,0.6,0,0.8-0.1l22.2-3.7c2.7-0.4,4.9-3,5-5.9
			c0-1.5-0.6-2.8-1.6-3.7c-1-0.9-2.4-1.2-3.8-1l-14,2.3c-1.5,0.2-2.8-0.9-2.8-2.4l0.1-5.2c0-1.2,0.9-2.2,2-2.3l12.7-2.1
			c2.8-0.5,5-3,5-5.8c0-1.5-0.5-2.8-1.5-3.7c-1-0.9-2.4-1.2-3.8-1l-11.4,1.9c-1.5,0.2-2.8-0.9-2.8-2.4l0.1-5.2c0-1.2,0.9-2.2,2-2.3
			L369.3,429.8z"/>
		<path class="st0" d="M421.8,452.5c-0.6-0.4-0.9-1.1-1-1.8c0-0.5,0-1.1,0-1.7c0-3.1-0.8-5.9-2.5-8.1l0,0c-0.7-0.9-0.7-2.1-0.1-3
			c2.3-3.2,3.5-7,3.5-10.7c0.1-4.5-1.6-8.4-4.7-11.1c-3-2.6-7.1-3.7-11.3-3l-12.1,2h-0.1c-2.8,0.5-5,3-5,5.9l-0.5,41.4
			c0,1.4,0.5,2.8,1.5,3.6c0.8,0.7,1.9,1.1,3,1.1c0.3,0,0.5,0,0.8-0.1c2.8-0.5,5-3,5-5.8l0.2-12c0-1.2,0.9-2.2,2-2.3l4.3-0.7
			c0.3,0,0.5,0,0.8,0c0.7,0.1,1.7,0.3,2.6,0.7c0.1,0,0.2,0.1,0.2,0.1c0.7,0.4,1.1,0.8,1.4,1.2c0.3,0.4,0.5,1,0.5,2
			c0,4.2,0.5,6.9,1.6,8.8c0.6,1.2,1.6,2.1,2.8,2.8h0.1c1,0.5,2.3,0.6,3.5,0.4c0.9-0.2,1.6-0.5,2-0.7c2.5-1.3,3.9-4.4,3.1-7
			C423,453.7,422.5,453,421.8,452.5z M411.4,428.3c-0.1,3.4-2.8,6.6-6,7.1l-4,0.6c-1.5,0.2-2.8-0.9-2.8-2.4l0.1-6.8
			c0-1.2,0.9-2.2,2-2.3l5.2-0.9c1.5-0.2,2.8,0.1,3.8,1C410.9,425.5,411.5,426.8,411.4,428.3z"/>
		<path class="st0" d="M467.2,407.3c-0.3-1.2-1-2.2-2.1-2.8c-2.3-1.4-5.5-0.4-7.2,2.2l-9.1,14c-0.9,1.4-2.9,1.5-3.9,0.2l-8.3-10.4
			c-0.8-1-1.9-1.6-3.1-1.7c-1.5-0.1-3,0.4-4.2,1.5c-2.2,2.1-2.7,5.3-1,7.4l13,16.5c0.3,0.4,0.5,1,0.5,1.5l-0.3,17.9
			c0,1.4,0.6,2.8,1.6,3.6c0.8,0.7,1.8,1.1,2.9,1.1c0.3,0,0.6,0,0.8-0.1c2.7-0.5,5-3.1,5-5.9l0.2-18.1c0-0.5,0.1-0.9,0.4-1.3
			l13.8-21.3C467.3,410.3,467.6,408.7,467.2,407.3z"/>
	</g>
	<g>
		<path class="st1" d="M122.2,355.7c0.2,0,0.3,0,0.3,0C122.1,355.6,122,355.7,122.2,355.7z"/>
		<path class="st1" d="M472,238.8c-13.1,2.6-26.1,5.1-39.2,7.7c7.2-37.6,14.4-72.6,14.3-76c-0.2-6.9-3.3-11-7.9-10.9
			c-4.5,0.1-10.6,1-10.4,5.1c0.1,2.2-8.1,44.5-16.2,85.7c-9.1,1.8-18.2,3.6-27.3,5.4c-45.8,9-91.7,18.1-137.5,27.1
			c-10.5,2.1-21.1,4.1-31.6,6.2c-8.2,1.6-14.5,22.6-3.2,20.3c28.9-5.7,57.8-11.4,86.6-17.1c36.3-7.1,72.6-14.3,108.9-21.4
			c-5.7,28.8-10.7,53.3-11.7,57.8c-2.8,11.9-13.8,35.2-17.7,35.3c-6.3,0.2,0.6-11.8,0.1-28c-0.6-17.7-7.7-28-11.1-27.9
			c-24,0.8-32,25.9-35.8,26s-6.7-3.2-11.5-3c-19.2,0.6-30,50.7-40.2,51.1c-4.5,0.1-7.9-1.8-8.1-7.3c-0.2-5.4,6.7-19.4-2-19.2
			c-11.5,0.4-14.9,7-14.8,11.7c0.2,6-6.7,21.2-12.4,21.4c-9.5,0.3-15.8-4.3-16.1-13.1s7.3-29.9,21.4-30.1c11.5-0.3,11.2,5.1,14,5
			c19.5-0.6,17-11,13.4-15c-3.5-4-3.5-4-17.4-3.5c-33.6,1.2-51.9,26.8-51.1,44s0.1,11.4,0.3,14.4c0.2,3.1-5.7,8.2-12.2,11
			c-6.5,2.7-8.1,0.9-8.3-6s9.2-28.2,9-34.1c-0.2-5.9-1.7-16.6-11.1-16.3c-9.4,0.3-26.9,11.3-26.9,11.3s-1.3,0.4-2-0.8
			c-0.1-0.4-0.2-0.8-0.4-1.2c0,0,0,0,0-0.1l0,0c-4.4-14-13.7-16.4-20.6-16.2c-9.1,0.3-15.6,9.9-16,13.6c-0.4,3.1,2.7,3.7,2.9,3.9
			c2.1-0.1,13.7,0.2,14.2,16.1c0.8,24.4-12.2,45.1-21.2,54.1c0,0-4.3,3.6-5.2,2.9c-0.3-0.2-0.6-1-0.9-1.9
			c-1.4-6.7-2.5-12.8-2.7-16.4c-0.4-11.2,5-36.6,4.8-43.1s-7.7-9.1-9.7-9c-2.1,0.1-16.4-6.6-15.3,26.7c1.1,33.3-26.1,40.2-28.1,40.3
			c-2.1,0.1-19.3,4.7-20.3-27S58.5,274.4,65,274.2c0.7,0,1.3,0.1,2,0.3c6,2,13.4,12.4,36.9,11.7c26.2-0.8,39.8-25.7,39.2-44.5
			S124.7,201.4,105,202c-28.6,0.9-41,25.2-43.9,25.3s-5.5-5.1-5.7-12.2c-0.2-7.1,5.2-22.8-4.9-22.5s-19,6.5-18.6,18.8
			c1,31.9,14.8,45.1,14.8,45.1s-33.1,64.7-30.4,150c1.2,35.9,25,44.8,25,44.8s26.2,8.6,41.9-9l0,0c0,0,1.8-1.9,2.4-1.8
			c0.6,0.1,1.7,2.3,1.8,2.5c1,2.6,1.7,4.8,2.2,6.5c0,0,0.6,2.5,0.1,3.7c-0.5,1.3-1.8,3-1.8,3l0,0C73,470.8,4.2,524.6,6.4,593.1
			c0.5,14.4,12.2,39.3,49.5,38.1c74.4-2.4,77.2-59.4,76.4-84.1c-0.5-17-11.7-72-14.6-86.2c-1.1-5.1-1.5-4.4,1-7
			c13.4-13.3,38.9-45.2,40-78.5c1.8-4.2,12.8-7.8,13-0.7c0.3,7.8-4.5,15.4-4.3,23.4c0.1,3.8-1.9,26,14.9,25.5
			c22.9-0.7,32.5-15.2,36.8-15.3s5.6,5.8,17.7,5.5c12-0.4,18.5-14.6,22-14.7c3.5-0.1,4.8,6.5,17.6,5.5c29.9-1,36.5-52.4,45.9-52.8
			c3.9,0-8.5,30.2-8.3,37.2c0.3,7.8,6.5,7,9.5,6.9c10.9-0.4,16.5-30,16.5-30s5.3-34.9,16.2-35.3c10.9-0.4,1.1,32.6,1.3,40.8
			c0.3,8.2,5.7,14.5,11.8,14.3c31.9,0,28.5-22,38-22.6c5.7-0.2,9.5,13.4,28.4,12.8c17.7-0.6,24-15.5,23.6-27.1
			c-0.5-16.8-19.1-14.5-18.9-9.1c0.1,3.7,2.8,13.4-9,13.8c-9.1,0.3-13.2-6.1-13.5-13.6c-0.3-10.3,4.7-40.5,10.7-72.6
			c2.8-0.5,5.6-1.1,8.3-1.6c10.5-2.1,21.1-4.1,31.6-6.2C477,257.6,483.4,236.6,472,238.8z M105.5,226.2
			c18.4-0.6,16.7,20.5,16.8,22.6s-3,17-19.4,17.5s-26.8-11.3-27-14.7C75.8,248.2,87.1,226.8,105.5,226.2z M63.5,609.4
			c-26.2,0.8-30.6-18.5-30.8-26.1c-1.3-41.6,51.3-91.6,61.4-100.8c1.1-1,1.5-0.7,1.5-0.7s0.4,0,0.7,1.5
			c2.2,11.2,11.6,51.4,12.4,76.1S89.7,608.5,63.5,609.4z"/>
	</g>
</g>
</svg>
