<?xml version="1.0" encoding="utf-8"?>
<!-- Generator: Adobe Illustrator 19.1.0, SVG Export Plug-In . SVG Version: 6.00 Build 0)  -->
<svg version="1.1" id="Layer_1" xmlns="http://www.w3.org/2000/svg" xmlns:xlink="http://www.w3.org/1999/xlink" x="0px" y="0px"
	 viewBox="0 0 612 539" style="enable-background:new 0 0 612 539;" xml:space="preserve">
<style type="text/css">
	.st0{fill:#FFFFFF;}
</style>
<g id="Tclj1L_1_">
	<g>
		<path class="st0" d="M102.4,83.5c3.9-4.7,6.9-9.3,10.8-12.9c10.7-9.7,24.4-18.1,39.3-16.4c12.8,1.4,22.3,9.3,19.8,23.2
			C170.1,90.7,157,102,145.1,107c-8.3,3.5-13.9,0.5-21.8,1.6c-7,0.9-9.1,5.1-11.9,11.2c-12.9,27.7-17.3,59.3-18.9,89.4
			c-0.7,13.9-1.1,28.2,1.8,41.9c3.5,16.9,13.9,28.4,25.5,40.6c5.1,5.4,22.1,4.5,24.2-3.2c1-3.8-4.1-12.9-5.4-16.4
			c-2.4-6.6-5.1-13.2-6.5-20.1c-2.8-13.7,1.3-52.7,22.5-48c12.3,2.7,24,17.3,28.1,28.7c4.9,13.7,0.7,28-4.5,40.9
			c-3,7.4-4.7,10.9-0.3,18.2c2.4,4.1,5.7,8.8,10.3,7.3c4.4-1.4,11.3-15.5,13.7-19c5.3-7.9,10.5-15.9,15.3-24.1
			c5.2-8.8,13.5-21.3,2.6-27c-11.2-5.8-23-12.7-18.5-28.2c3.5-12.3,18-19.6,30-15.3c6.3,2.2,8,7.8,13.2,10.9
			c6.7,3.9,11-0.8,17.1-3.7c15-7,27.2,1.4,22.2,18.1c-3.6,12-11.9,23.1-13.6,35.6c-1.8,13.7,11.6,20.9,20,8.1c3.8-5.7,2.1-15,3-21.5
			c1.2-8.8,3.7-17.2,9.5-24.1c5.8-6.9,25.7-31,34.8-12.6c3.4,6.9-4.8,13.9-8.4,18.6c-6.5,8.7-10.5,18.7-13.2,29.2
			c-0.7,2.7-0.1,6.3,1.1,8.9c2.1,4.5,6,4.3,10.3,1.1c6.6-4.9,8.9-12.3,11.8-19.2c5.4-12.7,10.1-25.8,15.1-38.7
			c2.1-5.4,10.4-8,14.6-3.6c4.9,5.2-2.9,20.9-4.4,26.7c-3,11.3-8.6,22.1-8.1,34.2c12.4,3.9,16.4-28,20.2-34.9
			c5.5-10.9,12.4-20.9,20.7-29.9c4.2-4.4,9.2-5.5,14.8-3.4c2.7,1.2,5,2.9,7.1,4.9c2.6-1.9,5-4,7.4-6.1c4.7-4.5,9.3-5,14.1-1.2
			c11.8,9.2,15.4,18.7,9.9,33.5c-3.4,9.3-6.1,21.1-4.6,31.2c1.8,12.3,8.3,3.4,12.4-3.9c11.8-21.1,13.7-51.2,16-74.6
			c0.4-4.5-3.1-5.3-5.9-5.9c-13.1-2.9-26.3-5.8-39.5-8c-31.1-5.2-62.2-6.9-93.7-7.1c-13.7-0.1-27.1,1.9-40.6,4.2
			c-10.7,1.8-20.9,5-31.2,7.9c-8.5,2.4-17,5-25.2,8.3c-6.1,2.5-11.5,5.7-18.3,4.1c-10.7-2.5-18.7-17.5-5.3-22.5
			c11.3-4.2,22.6-8.2,34.1-11.6c20.2-6,47-14,68-16.2c15.4-1.6,30.9-1.4,46.3-1.1c36.1,0.9,70.4,8.2,105.5,15.8
			c13.4,2.9,13.3-22.7,13.9-30.4c1.9-23.4,8.2-46.7,13-69.6c1.2-5.6,3.5-6.4,8.7-4.5c6.5,2.3,12.2,5.6,12.9,13.1
			c0.4,4.9-0.3,9.9-1,14.8c-2.8,17.4-6.1,34.7-9.9,51.8c-1.8,10.3-9.2,26.4-1.5,35.8c7.5,9.1,22.7,8.2,32.6,12.8
			c4.9,2.3,16.6,12.8,11.3,19.1c-7.3,8.7-39.9-4.9-48.3-7.4c-3.4-1-4.6-0.3-5.2,3.4c-3.1,20-6.6,39.9-9.7,59.9
			c-0.5,3.4,0.3,7,0.6,11.2c6.3,0.3,6.4-11.3,13.3-12.6c10.9-2,13.5,13.9,15.9,20.9c2.4,7.3,4.7,14.3,9.3,20.8
			c9.2,13.2,20.2,35,9.4,50.5c-8.1,11.7-22.2,11.3-34.8,13c-12.5,1.8-21.1,3-33.4-2c-13.1-5.3-25.3-6-39.1-9
			c-50.9-10.8-94.2-16.8-146.6-12.5c-10.1,0.8-23.1,8.5-33,4.6c-13.1-5.3,2.3-12,8.9-14.7c35.5-14.7,86-13.4,123-6.8
			c10.2,1.8,20.2,5.2,30.3,7.8c5.7,1.4,11.3,2.7,17,4c13.1,2.9,26.2,5.8,39.3,8.7c14.6,3.3,28.9,2.6,42.9-2.7c1.6-0.6,3.1-1.8,4.3-3
			c8.4-8.4,9.4-17.4,3.1-27.8c-2.8-4.5-5.8-13-10.9-15.6c-5.9-2.9-7.8,1-13.5,3c-7.1,2.5-12.3,2-17.1-3.4c-3.7-4.2-3-8.5-9.2-8.6
			c-8.6-0.2-15.1,10.7-24.4,9.8c-16.2-1.6-15-26.7-11.7-37.4c2-6.6,2.9-13.5,4.3-20.2c0.7-3.4,1.7-6.8,2.6-10.1
			c-0.7-0.4-1.4-0.8-2.1-1.1c-1.7,1.5-4.1,2.8-5.1,4.7c-6.8,12.7-13.3,25.6-16.7,39.8c-1.6,6.4-3.6,12.8-6,19c-2,5.2-7,5.1-10.7,2
			c-5.6-4.7-4.3-14.9-2.4-20.9c3.4-11.1,13.1-26,13.4-37.7c0.4-14-11.2,5.9-13.2,10.3c-6.2,13.3-23,69.2-46.5,45.5
			c-5.5-5.6-12.7-0.1-18.4,1.9c-6.7,2.3-11.4,0.4-18.2,0.9c-7.1,0.5-8,3.7-12.9,8.2c-5.3,5-12.1,7.8-19.4,8
			c-8.2,0.3-21.5-9.6-25.1-17.4c-8-17.3,0.1-36.1,5.4-52.9c-10.8,6-10.3,19.7-14.2,29.9c-5.3,13.9-16.2,27.9-24.8,40
			c-6.9,9.7-12.1,20.5-21.1,28.7c-1.3,1.2-1.5,5.1-0.5,6.9c3.1,5.9,7.3,11.2,10.5,17.1c17,31.2,36.3,63.9,37.5,100.4
			c0.3,9.6-0.5,18.9-3.4,27.8c-1.6,5-5.1,9.4-7.9,14c-1.4,2.3-3.1,4.4-4.6,6.5c-0.1-0.4-0.4-1-0.6-1.5
			c-9.2,14.8-27.8,24.6-45.5,23.2c-16.4-1.2-33-2.1-48.3-9.3c-5.2-2.5-11.3-3.2-16.4-5.9c-28.7-15.8-47.9-50.1-40.6-82.9
			c8.9-39.6,48.9-61.9,78.7-84.2c4.9-3.7,1.2-8.2-0.6-11.7c-4.2-8.5-7.8-9.3-17.1-6.9c-21.5,5.7-50.6-7.2-60.7-26.1
			C61.1,247,60.3,212.4,63.3,176c1.5-17.3,5.1-34,12.6-49.7c5.6-11.7,19.6-26.1,13.3-39c-3-6.2-17.8-24.6-10.3-32.9
			c4-4.4,6.8,3.2,8.8,6.6C92.3,68.9,96.2,76.9,102.4,83.5c1.2-0.8,1.6-1.6,1.1-2.6C102.2,80.7,101.7,82.8,102.4,83.5
			C106.3,78.9,100.4,81.4,102.4,83.5C106.3,78.9,100.4,81.4,102.4,83.5z M137.9,350.5c0.3,0.1,0.7,0.3,1,0.4
			c-4.7,6.6-9.4,13.1-14.1,19.8c-14.6,20.7-21.9,49.8-18.3,74.9c4.7,33,35.1,50.1,66.8,51.3c12.5,0.5,34.8-2.5,41.5-15
			c1.7-3.1,2.5-7,4.8-9.5c9.2-10-2.6-38.6-6.3-49.3c-6.1-17.6-14.3-34.2-22.6-50.9c-5.3-10.8-11-26.3-20.1-34.4
			C161.2,329.5,145.4,347.7,137.9,350.5C138.2,350.7,139.6,349.9,137.9,350.5z M165,266.8c3.8-8.2,6.3-14.8,6.6-22.5
			c0.3-10.4-6.5-17.4-10.9-25.5c-1.9-3.6-6.1-1-7.8,1.4c-2.5,3.6-0.6,9.9,0.1,13.7C155.1,245.2,158.3,257.2,165,266.8
			c0.8-1.3,1.3-2.7,1.3-4.2C166.1,262.4,164.1,265.6,165,266.8C168.7,258.6,163.3,264.5,165,266.8z M154.3,74.7
			c1.6-10.1-23.2,10.6-25.3,13.7c-3.1,4.5-4.7,6.9,0.9,8.5C141.9,100.3,153,84.2,154.3,74.7C155,70.4,152.8,85.4,154.3,74.7
			C156.8,58.6,152.8,85.4,154.3,74.7z M219.5,201c2.1,5.2,4.1,9.8,10.5,9.8c0.1-4.7-5-13-7.8-12.5C221.5,199,220.6,200,219.5,201
			C221.6,206.2,220.6,200,219.5,201C221.6,206.2,220.6,200,219.5,201z"/>
	</g>
</g>
</svg>
