<?xml version="1.0" encoding="utf-8"?>
<!-- Generator: Adobe Illustrator 19.1.0, SVG Export Plug-In . SVG Version: 6.00 Build 0)  -->
<svg version="1.1" id="Layer_1" xmlns="http://www.w3.org/2000/svg" xmlns:xlink="http://www.w3.org/1999/xlink" x="0px" y="0px"
	 viewBox="0 173 612 250" style="enable-background:new 0 173 612 250;" xml:space="preserve">
<style type="text/css">
	.st0{fill:#FFFFFF;}
</style>
<path class="st0" d="M514.8,218.9C514.8,218.9,514.9,218.9,514.8,218.9c0.1,2.2,0,4.4,0.1,6.5c0.1,7.3,5.2,13,12.5,13.4
	c1.8,0.1,6.3-1.2,6.7-3.4c0.7-3.5-2.3-3-4.4-4.5c-4.3-3.1-5.1-5.4-5.1-10.8c0.1-4.9,0-9.8-0.4-14.7c-0.1-1.4-1.6-2.8-2.8-3.9
	c-2.9-2.8-5.9-5.5-8.9-8.3c-0.9-0.9-1.5-2.2-2.4-3.1c-5.5-5.9-8.2,1.9-8,6.4c0.1,1.5,0.9,3.1,0.5,4.4c-1.7,6.8-3.5,13.5-5.6,20.2
	c-2.7,8.7-7.7,15.5-16.6,18.9c-15.2,5.9-17-14.9-11.4-23.8c2-3.1,10.7-5,8.2,1.1c-1.3,3.3-1.3,4.5-0.6,8c1.5-0.3,3.3-0.1,4.3-1
	c4-3.5,5.5-8.2,4.7-13.3c-0.3-1.8-2-3.8-3.6-4.7c-5.3-3.1-13.9-0.9-17.7,4c-2.7,3.5-4.6,7.6-5.7,11.9c-0.8,3.2-0.1,8.5-2.1,11.1
	c-9.1,11.7-18.3,22.4-28.9,32.8c-2,2-3.8,0.5-3.9-1.9c-0.2-3.3-0.1-6.6-0.1-10c0-7.9,10.5-13.9,15.1-19.3
	c7.5-8.9,14.5-18.1,17.5-29.7c2.3-8.7,2.7-17-2.7-24.7c-7.5-10.7-22.4-1.4-28,6.2c-5.5,7.5-8.2,16.3-9.8,25.4
	c-1,5.4-1.4,10.8,0.6,16c1.3,3.3,5.5,4,6.7,0.3c0.4-1.1,0.6-2.4,0.6-3.5c-0.2-5.5,0.2-10.9,1.8-16.2c2.6-8.6,6.1-16.6,14.2-21.5
	c4.3-2.6,7.5-0.8,8,4.2c1.6,20.3-13.5,34.9-26.8,47.9c-13,12.8-27,24.9-40.5,37.2c-5,4.5-4.5-7.1-4.3-9c0.1-1.2,0.6-2.5,1.4-3.4
	c6.7-7.6,12.1-14.7,17.3-23.5c6.9-11.7,10.9-24.5,8.3-38.1c-2.2-11.4-14.1-21.7-24-10.5c-4.4,4.9-7.3,10.5-9.4,16.7
	c-2.1,6.4-3.1,13-3.2,19.7c-0.1,5.6,0.5,11.3,1.1,16.9c0.4,3.6,5.2,2.7,6.5,0.6c0.8-1.3,1.1-3.2,1.2-4.8
	c1.3-12.8-0.6-32.2,10.5-41.2c3.2-2.6,5.5-2,7.2,1.7c3,6.2,2,12.7,0.9,18.9c-2.1,11.8-8.2,21.7-16.3,30.3
	c-6.1,6.5-14,10.2-22.1,13.5c-4,1.6-8,2.5-12.3,2.3c-3.2-0.2-5.5-1.9-6.7-5c-2.3-6.1-1.4-12.6,1.1-18.4c0.9-2.1,7.9-11.1,8.2-3.3
	c0.1,1.8-0.4,3.7-0.5,5.6c-0.2,2.4,2.6,2.9,4.4,2.1c4.6-2.2,6-11.2,3.1-15c-6-7.6-16.6-1.8-20.5,4.6c-4.5,7.4-6.4,15.6-5.6,24.2
	c0.8,8.2,8.7,16,17.2,14.7c5.9-0.9,11.7-3,17.4-5c3.9-1.4,5.4-0.9,5.6,3.3c0.3,7.5,0.2,15.1,0,22.7c-0.1,4.9-0.9,9.7-1,14.6
	c-0.2,10-3.3,18.9-9.5,26.7c-3.1,3.9-7.5,4.5-13,1.8c-2.9-1.4-4.3-5.3-2.7-9.6c1.8-4.9,4.1-9.7,6.9-14c3.4-5.4,9.9-8.9,10.5-15.7
	c0.4-4.3-6-2.8-7.7-1.3c-3.6,3.2-7.1,6.6-9.9,10.5c-5.3,7.3-9.8,15.3-9.3,24.8c0.6,11.8,9.6,17.6,19.7,17
	c8.2-0.4,14.1-5.2,18.2-11.8c5.2-8.4,7.2-17.9,8-27.7c0.4-4.8,0.5-9.6,0.5-14.3c0.1-4.9,0.9-9.4,5-12.8c6.5-5.6,12.7-11.6,19.2-17.2
	c3.3-2.9,6.8-5.6,10.5-8.1c2.1-1.4,3.5-0.4,3.6,2.1c0.2,8.3,0.7,16.6,0.5,25c-0.3,10.9-1,21.8-3.7,32.4c-1.5,6.1-4,11.2-10.2,13.9
	c-6.4,2.7-12.8-1.4-11.6-8.5c1.8-11.2,8.8-21.1,14.2-30.9c2.6-4.8-3.3-5.2-6-3.7c-4.4,2.4-7.8,8.3-10.2,12.5
	c-5.3,9.5-7.6,20.2-4.2,30.8c1.3,4,3,7.5,7.5,8.8c8.8,2.6,18.8-2.3,23.8-8.6c4.5-5.7,6.6-12.7,7.3-19.7c1-11.1,1.2-22.2,1.9-33.3
	c0.1-1.2,0.9-2.7,1.8-3.5c6.1-5.9,12.5-11.5,18.4-17.5c4.5-4.6,8.5-9.7,12.7-14.7c1.3-1.5,2.8-2.5,4.6-0.9
	c5.6,4.9,11.6,6.2,18.9,4.3c7.5-2,13.1-6,16.5-12.8c4.1-8.1,6.6-17,10.6-25.1c1.2-2.4,3.9-2,5.4-0.5
	C515.8,211.6,514.8,216.4,514.8,218.9C514.8,218.9,514.8,216.5,514.8,218.9z M260.8,225.3c1-3.5,4.3-11.6-0.9-13.4
	c-6.1-2.1-8.3,9.6-9.3,12.9c-4.2,13.9-8.5,27.7-12.5,41.6c-2,6.7-4.6,13.1-10.1,17.7c-2.2,1.9-4.6,3.6-7,5.1c-5.9,3.5-3.4-5.9-2.7-8
	c1.6-5.3,3.6-10.5,3-16.2c-0.3-2.9-0.6-6-3.6-7.5c-4-1.9-7-0.9-10.5,1.5c-2.3,1.6-7,7.6-9.9,5c-3.3-3-6.5-1.8-7.8,2.6
	c-2.4,8-4.6,15.9-7.5,23.7c-2.7,7.5-15,19.4-17,5.2c-0.1-1,0.5-2.1,0.7-3.2c0.6-3.1,2.2-13.4-4.7-8.7c-4.2,2.8-5.9,12.2-8,16.5
	c-1.3,2.8-4.1,4.2-6.2,3.4c-2.6-1-3-3.4-3-5.8c0.2-6.5,2.1-12.4,6.3-17.4c1.7-2,3.7-3.7,5.9-5c2.1-1.3,4.4-0.2,6.6,0.7
	c3.7,1.4,8.5-1.3,8.5-4.5c0.1-4.4-3.3-7.7-7.7-7.7c-8.3,0-14.8,3.8-19.5,10.2c-6.6,9.1-9.6,19.6-9.2,30.9c0.2,5.3,3.9,10,8.2,9.8
	c4.6-0.3,9.2-1.1,12.2-5.3c1.2-1.7,2.3-2.1,4.4-0.7c27.4,17.8,34.6-28.4,48-40c0.7-0.6,1.9-0.8,2.8-1.2c0.4,1.1,1.3,2.3,1.1,3.2
	c-1.5,6.6-4.6,12.7-6.1,19.2c-1.3,5.9,2.4,9.7,8.3,9.1c6.7-0.7,12.6-3.2,18-7.2c4.3-3.1,8.7-6.8,14.1-1.9c6.3,5.8,16.6-5,18.2-10.1
	c0.9-2.8-1-5.8-4.2-5.3c-3.8,0.6-2.7,4.3-4.8,6.4c-2.1,2.1-5.3,2.3-7.6,0.2c-3.3-3.1-1.4-9.9-0.3-13.4c2.9-9.6,6-19.2,9.2-28.8
	c1.3-3.9,8.6-5.3,11.9-6.4c2.8-0.9,4.1-4.4,2.1-6.8C268.4,223.6,263.4,225.1,260.8,225.3C261.4,223.3,263.1,225.1,260.8,225.3z
	 M181.6,253.7c0.5-0.1,1.5-0.2,2.5-0.5c15.7-4,31.4-8.2,46.9-13c2.4-0.7,11.1-4.5,5.9-7.8c-4.4-2.8-10-0.1-14.6,1
	c-6.2,1.5-12.4,3-18.6,4.6c-5.5,1.3-29.4,3.5-29.5,10.9C174.2,252.9,178.7,253.6,181.6,253.7C182.1,253.6,180.4,253.7,181.6,253.7z"
	/>
<path class="st0" d="M514.8,218.9c0-2.5,1-7.2-1-9.2c-1.5-1.5-4.1-2-5.4,0.5c-4,8.1-6.5,16.9-10.6,25.1c-3.4,6.8-9,10.8-16.5,12.8
	c-7.3,1.9-13.4,0.6-18.9-4.3c-1.8-1.6-3.3-0.6-4.6,0.9c-4.2,4.9-8.2,10.1-12.7,14.7c-5.9,6-12.3,11.6-18.4,17.5
	c-0.9,0.9-1.7,2.3-1.8,3.5c-0.7,11.1-0.9,22.2-1.9,33.3c-0.7,7.1-2.8,14-7.3,19.7c-5,6.4-15,11.2-23.8,8.6c-4.4-1.3-6.2-4.8-7.5-8.8
	c-3.4-10.6-1.1-21.3,4.2-30.8c2.2-4,5.9-10.4,10.2-12.5c2.7-1.4,8.7-1.2,6,3.7c-5.4,9.8-12.4,19.7-14.2,30.9
	c-1.2,7.1,5.2,11.3,11.6,8.5c6.2-2.6,8.7-7.7,10.2-13.9c2.7-10.7,3.4-21.5,3.7-32.4c0.2-8.3-0.3-16.6-0.5-25
	c-0.1-2.6-1.5-3.6-3.6-2.1c-3.6,2.5-7.2,5.2-10.5,8.1c-6.5,5.6-12.7,11.6-19.2,17.2c-4.1,3.5-4.9,7.9-5,12.8
	c-0.1,4.8-0.1,9.6-0.5,14.3c-0.8,9.8-2.8,19.3-8,27.7c-4.1,6.6-10,11.4-18.2,11.8c-10.1,0.5-19.2-5.3-19.7-17
	c-0.5-9.5,4-17.4,9.3-24.8c2.8-3.9,6.4-7.2,9.9-10.5c1.7-1.6,8.1-3.1,7.7,1.3c-0.6,6.8-7.1,10.4-10.5,15.7c-2.8,4.4-5,9.2-6.9,14
	c-1.7,4.4-0.2,8.2,2.7,9.6c5.5,2.7,9.8,2.1,13-1.8c6.2-7.8,9.3-16.7,9.5-26.7c0.1-4.9,0.9-9.7,1-14.6c0.2-7.5,0.2-15.1,0-22.7
	c-0.1-4.2-1.7-4.7-5.6-3.3c-5.7,2-11.5,4.2-17.4,5c-8.5,1.2-16.4-6.5-17.2-14.7c-0.8-8.6,1.1-16.8,5.6-24.2
	c3.9-6.4,14.6-12.2,20.5-4.6c2.9,3.7,1.5,12.8-3.1,15c-1.8,0.8-4.6,0.3-4.4-2.1c0.1-1.9,0.6-3.7,0.5-5.6c-0.3-7.5-7.2,1-8.2,3.3
	c-2.5,5.9-3.4,12.3-1.1,18.4c1.2,3.1,3.5,4.8,6.7,5c4.3,0.3,8.4-0.6,12.3-2.3c8.1-3.3,16.1-7,22.1-13.5c8.1-8.6,14.2-18.6,16.3-30.3
	c1.1-6.2,2.1-12.7-0.9-18.9c-1.8-3.7-4.1-4.3-7.2-1.7c-11.1,9-9.2,28.4-10.5,41.2c-0.2,1.7-0.4,3.5-1.2,4.8
	c-1.4,2.2-6.1,2.9-6.5-0.6c-0.6-5.6-1.2-11.2-1.1-16.9c0.1-6.7,1.1-13.3,3.2-19.7c2-6.2,5-11.7,9.4-16.7c9.9-11.2,21.7-1,24,10.5
	c2.7,13.6-1.4,26.4-8.3,38.1c-5.2,8.8-10.6,15.9-17.3,23.5c-0.8,0.9-1.3,2.2-1.4,3.4c-0.2,1.9-0.7,13.6,4.3,9
	c13.5-12.3,27.5-24.3,40.5-37.2c13.2-13,28.4-27.7,26.8-47.9c-0.4-4.9-3.5-6.9-8-4.2c-8.1,4.9-11.6,12.9-14.2,21.5
	c-1.6,5.3-1.9,10.7-1.8,16.2c0,1.2-0.2,2.4-0.6,3.5c-1.2,3.7-5.4,3-6.7-0.3c-2-5.2-1.6-10.6-0.6-16c1.6-9.1,4.3-17.8,9.8-25.4
	c5.6-7.6,20.5-16.8,28-6.2c5.4,7.8,5,16,2.7,24.7c-3,11.6-10,20.9-17.5,29.7c-4.6,5.5-15.1,11.4-15.1,19.3c0,3.3-0.1,6.6,0.1,10
	c0.1,2.4,1.9,3.9,3.9,1.9c10.6-10.4,19.9-21.1,28.9-32.8c1.9-2.4,1.4-8.1,2.1-11.1c1.1-4.3,3-8.4,5.7-11.9c3.8-4.9,12.4-7.1,17.7-4
	c1.6,0.9,3.3,3,3.6,4.7c0.9,5.1-0.7,9.8-4.7,13.3c-1,0.9-2.9,0.7-4.3,1c-0.7-3.6-0.7-4.8,0.6-8c2.5-6.1-6.2-4.2-8.2-1.1
	c-5.6,8.9-3.8,29.7,11.4,23.8c8.9-3.5,13.9-10.2,16.6-18.9c2.1-6.7,3.9-13.4,5.6-20.2c0.3-1.3-0.5-2.9-0.5-4.4
	c-0.2-4.6,2.5-12.3,8-6.4c0.9,1,1.5,2.2,2.4,3.1c2.9,2.8,6,5.4,8.9,8.3c1.1,1.1,2.6,2.5,2.8,3.9c0.4,4.9,0.4,9.8,0.4,14.7
	c-0.1,5.4,0.8,7.7,5.1,10.8c2,1.5,5,1,4.4,4.5c-0.4,2.2-4.9,3.5-6.7,3.4c-7.3-0.4-12.4-6.1-12.5-13.4
	C514.9,223.2,514.9,221,514.8,218.9C514.9,218.9,514.8,218.9,514.8,218.9C514.8,216.5,514.8,218.9,514.8,218.9z"/>
<path class="st0" d="M260.8,225.3c2.6-0.3,7.5-1.7,9.5,0.6c2.1,2.3,0.6,6-2.1,6.8c-3.4,1-10.6,2.5-11.9,6.4
	c-3.2,9.5-6.3,19.1-9.2,28.8c-1,3.3-2.7,9.7-0.3,12.8c2.1,2.8,5.8,2.6,8.2,0.4c2-1.8,1-5.2,4-6.2c3.4-1.2,6,2,5,5.1
	c-1.7,5.1-11.9,15.8-18.2,10.1c-5.4-5-9.8-1.3-14.1,1.9c-5.4,4-11.3,6.5-18,7.2c-5.9,0.6-9.6-3.2-8.3-9.1c1.5-6.5,4.6-12.6,6.1-19.2
	c0.2-1-0.7-2.2-1.1-3.2c-0.9,0.4-2.1,0.6-2.8,1.2c-13.5,11.7-20.6,57.9-48,40c-2.1-1.4-3.2-1-4.4,0.7c-3,4.2-7.6,5.1-12.2,5.3
	c-4.2,0.2-8-4.5-8.2-9.8c-0.4-11.3,2.6-21.8,9.2-30.9c4.6-6.4,11.2-10.2,19.5-10.2c4.4,0,7.8,3.3,7.7,7.7c0,3.2-4.9,6-8.5,4.5
	c-2.2-0.9-4.5-2-6.6-0.7c-2.2,1.3-4.3,3.1-5.9,5c-4.2,5-6.1,10.9-6.3,17.4c-0.1,2.5,0.4,4.8,3,5.8c2.1,0.8,4.8-0.7,6.2-3.4
	c2-4.1,3.9-13.8,8-16.5c6.6-4.5,5.3,5.4,4.7,8.7c-0.2,1.1-0.8,2.2-0.7,3.2c1.9,14.1,14.3,2.3,17-5.2c2.8-7.8,5.1-15.8,7.5-23.7
	c1.3-4.4,4.5-5.6,7.8-2.6c2.9,2.6,7.8-3.5,9.9-5c3.4-2.4,6.4-3.5,10.5-1.5c3,1.5,3.3,4.6,3.6,7.5c0.6,5.6-1.4,10.9-3,16.2
	c-0.6,2.1-3.4,11.6,2.7,8c2.5-1.5,4.8-3.2,7-5.1c5.5-4.7,8.1-11,10.1-17.7c4.1-13.9,8.3-27.8,12.5-41.6c1.1-3.5,3.3-15,9.3-12.9
	C265.2,213.7,261.8,221.8,260.8,225.3C263.1,225.1,261.4,223.3,260.8,225.3z"/>
<path class="st0" d="M309,284.7c0.2-0.1,0.3-0.3,0.5-0.4C310.3,283.5,308.8,284.6,309,284.7z"/>
<path class="st0" d="M181.6,253.7c-2.9-0.2-7.4-0.8-7.3-4.7c0.1-5.1,7.3-5.4,10.9-6.3c6.2-1.5,12.4-3.1,18.6-4.6
	c6.2-1.5,12.4-3.1,18.6-4.6c4.5-1.1,10.2-3.8,14.6-1c5.1,3.3-3.7,7.1-5.9,7.8c-15.5,4.8-31.2,8.9-46.9,13
	C183.1,253.5,182.1,253.6,181.6,253.7C180.4,253.7,182.1,253.6,181.6,253.7z"/>
<path class="st0" d="M126.3,311.2c-3.9-0.1-6.1-1.4-6.9-5.3c-0.8-3.9-0.8-8-1.1-12c-0.5-6-1.4-11.6-7.1-15.4
	c-3.5-2.3-3.5-7.7-7.1-9.6c-4.3-2.3-7.1,1.5-7.3,5.2c-0.3,5.5,0.9,8.5-0.6,14.1c-1.6,5.9-3.1,11.8-5.2,17.5c-3.4,9.6-7.3,19-16.4,25
	c-3.1,2-6,4.2-9,6.4c-0.2,0.1-0.3,0.3-0.6,0.4c-0.3-0.2-0.5-0.3-0.8-0.5c0.7-5.1,3.1-9.6,4.5-14.6c2.2-8.1,4.4-16.3,6.4-24.5
	c1-3.9,6.5-17.7,1.5-20.5c-9.5-5.3-14.4,27.8-15.8,32.6c-4.1,13.9-23.3,22.2-23,1.9c0.3-17.9,8.1-37.4,15-53.8
	c1.9-4.5,2.1-5.1,6.1-3.5c4.2,1.7,7.1,4.6,11.8,5.5c9.9,1.7,18.5-3.3,22.6-12.4c7-15.3-8.8-34-24.9-26.4c-3.5,1.6-9.1,8.7-12.7,8.6
	c-3.8-0.1-3-5.1-3.8-7.9c-0.8-2.9-3.1-7.6-7.2-5.2c-3.7,2.3-1.9,11.1-1.4,14.7c0.7,4.6,3.5,8.7,2.8,13.5c-0.7,4.3-3.9,8.3-5.7,12.2
	c-4.8,10.3-7.7,21.3-10.7,32.3c-3.1,11.4-5.1,27.4,1,38.2c2.6,4.6,8.3,8.6,13.7,8c1.6-0.2,4.7-2.4,6.2-1.1c2,1.7-1.2,9.1-1.6,10.6
	c-4.2,16.4-8.6,32.7-13.9,48.8c-1.5,4.6-4.6,7.9-9.1,9.7c-16.6,6.5-11.6-20.2-4.4-26.5c4.2-3.7,13.7-7.4,15.6-12.8
	c3.5-10.1-7.7-5.1-11.4-2.9c-10.9,6.5-19.3,15.6-21.3,28.6c-1.5,9.6,1.1,19.7,12.9,22.8c5.5,1.5,10.9,1.6,16.2-1
	c7.4-3.8,11.2-10.4,13.5-17.8c2.8-9,5.4-18.1,7.9-27.1c1.8-6.5,2.9-15,9.3-18.6c15-8.5,29-18.9,34.6-35.9c2.5-7.7,4.3-15.7,7.1-23.3
	c0.3,0,0.6,0,0.8,0c4.3,8.3,0.8,19.3,6.8,26.9c3.9,5,15.1,7.7,19.6,1.4C136.9,312.2,129.8,311.3,126.3,311.2z M76.4,229.2
	C71.1,228.9,83.3,229.2,76.4,229.2c6.9,0,11,5.6,9.4,12.9c-2,9.1-13.2,12.5-20.3,5.9C57.5,240.6,67,228.6,76.4,229.2z"/>
<path class="st0" d="M599.5,216.7c-1.9,1.8-3.5,4-4.9,6.2c-3.8,6.2-9.2,10.6-15.3,14.3c-0.6,0.3-1.4,0.2-2,0.4
	c-0.1-2.1,0.1-4.1,0.8-6.1c4.7-14.6,9.5-29,13.4-43.8c0.4-1.7,1-3.8-1.4-4.9c-2.3-1-4.3-0.9-5.7,1.3c-1.6,2.5-3.5,5-4.6,7.7
	c-2.3,6.2-4.1,12.6-6.2,18.9c-1.7,5-4.1,10.2-8.9,12.7c-4.3,2.3-11.7,3.1-14.3-2.1c-1.9-3.8-1.8-7.6-0.5-11.5
	c1.7-4.9,3.6-9.6,5.3-14.5c0.5-1.6,1.2-3.3,1-4.8c-0.4-4.3-6.6-2.5-8-0.1c-1.1,1.7-1.9,3.6-2.7,5.5c-3.5,8.1-6.9,16.3-5.4,25.4
	c1.4,8.7,4.4,13.3,13.1,13.9c1.6,0.1,14.1-3.4,13.6,0c-0.8,5.3-1.4,10.9-6.2,14.4c-9.4,6.9-19.1,13.4-28.2,20.6
	c-12,9.6-15.9,21.9-7.6,35.9c1.7,2.9,4.2,5.1,7.7,5.7c6.3,1.1,12.7,2.3,17.8-2.5c5.4-5.1,7.9-11.8,10.2-18.5
	c3.7-10.9,7-22,10.4-33.1c0.9-2.9,2.4-5.2,5.1-7c8.6-5.7,17.4-11.3,24-19.5c2.4-3,4.9-6,5.9-10.4c0,0.3,0.2,0,0.4-2.3
	C604.2,215.9,602.5,213.9,599.5,216.7z M557.5,267c-0.1,1.4-0.3,2.8-0.7,4.3c-0.1,0.4-0.2,0.7-0.3,1.1c-0.4,1.4-0.9,2.8-1.4,4.2
	c-0.1,0.3-0.3,0.7-0.4,1c-0.3,0.7-0.5,1.3-0.7,2c-2.2,6.1-4.7,12.1-7.4,17.9c-0.2,0.5-0.5,0.9-0.7,1.3c-1.9,2.9-5,4.1-8.7,3.9
	c4.3,0.3-5.2,0,0,0c-2.6,0-4.5-0.6-5.7-1.8c0,0,0,0-0.1-0.1c-0.9-0.9-1.5-2.2-1.7-3.8c-0.1-0.6-0.1-1.2-0.2-1.8
	c-0.3-9.2,4.1-15.9,11-21.3c4.4-3.4,8.8-6.7,13.3-9.9c0.7-0.5,1.6-0.6,2.5-0.8c0.3-0.1,0.6-0.1,0.9-0.2h0c0.1,0.3,0.2,0.7,0.2,1
	c0.1,0.3,0.1,0.7,0.1,1c0,0.3,0,0.7,0,1C557.6,266.3,557.6,266.7,557.5,267z"/>
<g>
	<path class="st0" d="M309,284.7c0.2-0.1,0.3-0.3,0.5-0.4C310.3,283.5,308.8,284.6,309,284.7z"/>
	<path class="st0" d="M321.9,276c-2.1-0.5-6.1,3-7.7,4.2c-1.7,1.2-3.1,2.7-4.7,4.1c-0.1,0.1-0.3,0.3-0.5,0.4
		c-0.2-0.1-0.5-0.2-0.7-0.3c-0.1-1.4-0.4-2.9-0.2-4.2c0.9-4.6,1.9-9.1,3-13.6c2-7.9,4.1-15.7,6.2-23.5c2.6-9.5,5.9-19,5.7-29.1
		c-0.1-4.8-1.7-8.7-6.1-10.9c-6.2-3.2-14.8-2.6-20.4,1.8c-2.7,2.1-8.3,10-2.4,12.3c3.1,1.2,19.8-17.5,20-2.4
		c0.1,7.5-2.8,14.1-4.6,21c-4.8,17.8-9.9,35.6-15,53.4c-3.7,12.8-18.1,21.9-28,30.5c-10.7,9.4-15.9,26.4-9.6,39.5
		c3.2,6.6,9.4,9.7,16.6,8.4c8.4-1.5,13.9-13.1,16.3-20.2c4.4-13.1,8.1-26.4,12.1-39.5c1.3-4.1,1.5-7.4,4.5-10.6
		c3.3-3.5,7.6-6.3,11.1-9.6c2.4-2.2,4.6-4.7,6.5-7.4C325.9,277.8,323.6,276.4,321.9,276z M277.4,353.6c-1.3,2.2-3.1,3.7-6.9,3.6
		s-5.7-5.9-6.4-10.4c-0.6-4.5,5.5-15.9,7.3-17.9c1.8-2,17.7-16.2,17.7-16.2C288.5,318.1,278.7,351.4,277.4,353.6z"/>
</g>
<g id="pm7fL7.tif">
	<g>
		<path class="st0" d="M412.3,347.6c3.1-0.1,5.4,1.9,5.5,4.8c0.1,2.8-1.9,4.9-5.1,5.4c-13.5,1.9-27.1,3.4-40.5,5.8
			c-29.8,5.3-59.5,10.7-89.2,16.7c-19.3,3.9-38.4,9-57.6,13.6c-4.2,1-6.9,0-7.8-3.2c-0.9-3.1,0.9-5.7,5.1-6.7
			c19.9-4.8,39.7-10,59.8-14.1c30.1-6.1,60.3-11.5,90.6-16.8c12.5-2.2,25.1-3.6,37.7-5.3C411.3,347.7,411.8,347.7,412.3,347.6z"/>
		<path class="st0" d="M62.1,366.5c0.1-2.8,1.8-4.8,4.7-5.6c25.3-6.9,50.5-14,75.9-20.6c35.6-9.3,71.4-18.1,107.1-27.2
			c2.6-0.7,4.1,0.1,5.2,2c1.1,2,0.9,4.1-1.2,5.5c-2.1,1.4-4.2,3-6.5,3.6c-58.1,15.3-116.3,30.4-174.5,45.6c-2.2,0.6-4.4,1.1-6.6,1.5
			C63.8,371.8,61.9,369.5,62.1,366.5z"/>
		<path class="st0" d="M247.7,350.3c-0.4,3.5-1.7,5.1-4.4,5.7c-18.5,4.1-37.1,8.1-55.5,12.5c-24,5.8-47.9,11.9-71.9,17.9
			c-4.7,1.2-7.6,0.3-8.4-2.9c-0.9-3.4,0.9-5.8,5.8-7c42-10.1,84-20.2,126.1-30.1c2-0.5,4.5,0.2,6.5,1
			C246.8,347.8,247.3,349.7,247.7,350.3z"/>
		<path class="st0" d="M535.8,251.6c1.4,1.2,3,2.1,4.1,3.5c1.4,2,0.3,3.9-1.5,5c-1.7,1.1-3.5,2.3-5.4,2.7
			c-36.6,7.3-73.2,14.5-109.8,21.8c-4.4,0.9-5,0.3-4.2-3.9c1.1-5.9,1.1-5.9,7-7.1c35.8-7.1,71.5-14.1,107.3-21.2
			c0.6-0.1,1.3-0.2,2-0.2C535.5,252,535.7,251.8,535.8,251.6z"/>
		<path class="st0" d="M414.7,323.3c0.8-3,1.6-5.6,2.1-8.3c0.3-1.8,1.3-2.5,3-2.7c10.1-1.5,20.2-3.2,30.4-4.7
			c13.7-2,27.3-4.1,41-5.9c2.8-0.4,5.8-0.1,8.6,0.4c2.3,0.4,3.6,2.6,3.5,4.9c-0.1,2.2-1.6,3.5-4,3.9c-27.3,4-54.6,8.1-82,12.2
			C416.6,323.3,415.8,323.3,414.7,323.3z"/>
		<path class="st0" d="M301.4,310.8c1-3.4,1.9-6.5,2.9-9.6c0.2-0.6,1.1-1.3,1.8-1.4c8.4-2,16.8-4,25.2-5.8c2.8-0.6,5.6-0.8,8.4-1
			c1.4-0.1,3.8,0.2,4,0.8c0.5,1.7,0.5,3.8-0.2,5.4c-0.6,1.4-2.3,2.8-3.7,3.1c-12.4,3-24.8,5.7-37.3,8.6
			C302.3,310.9,302,310.8,301.4,310.8z"/>
		<path class="st0" d="M284,347.1c1-3.4,1.7-6.4,2.6-9.4c0.4-1.4,5.2-2.8,6.7-2.2c0.8,0.3,2,0.6,2.8,0.3c7.5-2.9,15.3-4.5,23.3-5.1
			c2.1-0.1,4.4-0.5,5.2,2.1c0.8,2.6-0.6,4.5-2.7,5.6c-1.9,1-3.9,1.8-6,2.3c-7.2,2-14.5,3.9-21.8,5.6
			C291,346.9,287.7,346.8,284,347.1z"/>
	</g>
</g>
</svg>
