<?xml version="1.0" encoding="utf-8"?>
<!-- Generator: Adobe Illustrator 19.1.0, SVG Export Plug-In . SVG Version: 6.00 Build 0)  -->
<svg version="1.1" id="Layer_1" xmlns="http://www.w3.org/2000/svg" xmlns:xlink="http://www.w3.org/1999/xlink" x="0px" y="0px"
	 viewBox="0 182 612 250" style="enable-background:new 0 182 612 250;" xml:space="preserve">
<style type="text/css">
	.st0{fill:#FFFFFF;}
	.st1{fill:#24203E;}
</style>
<path class="st0" d="M414.3,525.2c0.2,0,0.3-0.2,0.5-0.2C415.5,524.4,414.2,525.1,414.3,525.2z"/>
<g id="pm7fL7.tif">
	<g>
		<path class="st1" d="M482.8,590.6c2.5,0.4,4,2.3,3.6,4.6c-0.3,2.2-2.2,3.6-4.9,3.5c-11-0.5-22-1.4-33-1.5
			c-24.4-0.3-48.8-0.4-73.2-0.1c-15.9,0.2-31.8,1.4-47.7,2.2c-3.5,0.2-5.5-1-5.7-3.7c-0.2-2.6,1.6-4.4,5-4.5c16.5-0.8,33-2,49.5-2.2
			c24.8-0.3,49.5-0.1,74.4,0.3c10.2,0.1,20.4,0.9,30.7,1.4C482,590.5,482.4,590.6,482.8,590.6z"/>
		<path class="st1" d="M202.3,553.1c0.5-2.2,2.1-3.5,4.6-3.7c21.1-1.7,42.1-3.5,63.3-5c29.6-2,59.3-3.7,89-5.5
			c2.2-0.2,3.2,0.7,3.8,2.4c0.6,1.8,0.1,3.4-1.8,4.2c-1.9,0.8-3.8,1.7-5.7,1.9c-48.4,3.4-96.8,6.7-145.2,10
			c-1.8,0.1-3.7,0.2-5.5,0.2C202.8,557.5,201.7,555.4,202.3,553.1z"/>
		<path class="st1" d="M351.9,568c-0.8,2.7-2.1,3.8-4.3,3.9c-15.3,0.5-30.6,0.9-45.9,1.6c-19.9,1-39.8,2.3-59.7,3.4
			c-3.9,0.2-6.1-0.9-6.2-3.6c-0.2-2.8,1.6-4.5,5.6-4.7c34.8-1.7,69.6-3.4,104.5-5c1.7-0.1,3.5,0.8,5,1.8
			C351.5,565.9,351.6,567.5,351.9,568z"/>
		<path class="st1" d="M574.4,574c-19.9-0.3-39.8-0.4-59.8-0.6c-3.9,0-6-1.3-6-4c0-2.8,1.9-4.3,6-4.3c19.1,0.3,38.2,0.7,57.4,1.1
			C574.9,566.3,574.4,574,574.4,574z"/>
		<path class="st1" d="M595.1,532.9c0.9,1.2,2.1,2.1,2.7,3.4c0.8,1.8-0.3,3.1-1.9,3.7c-1.5,0.6-3.1,1.3-4.7,1.3
			c-30.1,0.3-54.4,0.5-84.5,0.8c-3.6,0.1-3.9-8.2,1-8.3c29.4-0.3,55.9-0.5,85.3-0.7c0.5,0,1.1,0,1.6,0.1
			C594.8,533.2,595,533.1,595.1,532.9z"/>
		<path class="st1" d="M400.4,544.8c1.3-2.5,2.5-4.9,3.7-7.2c0.2-0.4,1.1-0.9,1.6-0.8c7-0.3,13.9-0.7,20.8-0.8
			c2.3-0.1,4.6,0.2,6.8,0.5c1.1,0.1,3,0.7,3.1,1.2c0.1,1.4-0.2,3.1-1,4.3c-0.7,1-2.2,1.9-3.4,1.9c-10.3,0.5-20.5,0.8-30.9,1.2
			C401.1,545,400.8,544.8,400.4,544.8z"/>
		<path class="st1" d="M381.1,570.9c1.3-2.5,2.3-4.8,3.5-7.1c0.5-1.1,4.5-1.4,5.6-0.7c0.6,0.4,1.5,0.8,2.2,0.7
			c6.4-1.2,12.8-1.3,19.2-0.6c1.7,0.2,3.6,0.3,3.8,2.4c0.2,2.2-1.2,3.5-3,4c-1.7,0.5-3.4,0.8-5.1,0.9c-6,0.5-12.1,0.9-18.1,1.2
			C386.7,571.8,384.1,571.2,381.1,570.9z"/>
	</g>
</g>
</svg>
