<?xml version="1.0" encoding="utf-8"?>
<!-- Generator: Adobe Illustrator 19.1.0, SVG Export Plug-In . SVG Version: 6.00 Build 0)  -->
<svg version="1.1" id="Layer_1" xmlns="http://www.w3.org/2000/svg" xmlns:xlink="http://www.w3.org/1999/xlink" x="0px" y="0px"
	 viewBox="0 127 612 362.1" style="enable-background:new 0 127 612 362.1;" xml:space="preserve">
<style type="text/css">
	.st0{fill:#F05C50;}
</style>
<path class="st0" d="M483,234.7C483.1,234.7,483.1,234.7,483,234.7c0,1.8,0,3.7,0,5.5c0.1,6.2,4.4,11,10.5,11.3
	c1.5,0.1,5.3-1,5.6-2.8c0.6-3-2-2.6-3.7-3.8c-3.6-2.6-4.3-4.6-4.3-9.1c0.1-4.1,0-8.3-0.3-12.4c-0.1-1.2-1.4-2.4-2.3-3.3
	c-2.4-2.4-5-4.6-7.5-7c-0.8-0.8-1.3-1.8-2.1-2.6c-4.6-5-6.9,1.6-6.7,5.4c0.1,1.2,0.7,2.6,0.4,3.7c-1.4,5.7-3,11.4-4.7,17.1
	c-2.3,7.4-6.5,13-14,16c-12.8,5-14.3-12.6-9.6-20.1c1.7-2.7,9-4.2,6.9,0.9c-1.1,2.8-1.1,3.8-0.5,6.8c1.2-0.3,2.8-0.1,3.6-0.8
	c3.4-2.9,4.7-6.9,3.9-11.2c-0.3-1.5-1.7-3.2-3-4c-4.5-2.6-11.7-0.8-15,3.4c-2.3,3-3.9,6.4-4.8,10c-0.7,2.7-0.1,7.1-1.8,9.3
	c-7.6,9.9-15.5,18.9-24.4,27.7c-1.7,1.7-3.2,0.4-3.3-1.6c-0.1-2.8-0.1-5.6-0.1-8.4c0-6.7,8.8-11.7,12.7-16.3
	c6.3-7.5,12.2-15.3,14.8-25.1c1.9-7.4,2.3-14.3-2.3-20.9c-6.3-9-18.9-1.2-23.6,5.2c-4.7,6.4-6.9,13.7-8.3,21.4
	c-0.8,4.6-1.2,9.1,0.5,13.5c1.1,2.8,4.6,3.4,5.6,0.2c0.3-1,0.5-2,0.5-3c-0.1-4.6,0.1-9.2,1.5-13.7c2.2-7.2,5.1-14,12-18.1
	c3.6-2.2,6.4-0.7,6.7,3.6c1.4,17.1-11.4,29.5-22.6,40.5c-11,10.8-22.8,21-34.2,31.4c-4.2,3.8-3.8-6-3.6-7.6c0.1-1,0.5-2.1,1.2-2.9
	c5.6-6.4,10.2-12.4,14.6-19.8c5.8-9.8,9.2-20.7,7-32.1c-1.9-9.6-11.9-18.3-20.2-8.9c-3.7,4.2-6.2,8.9-7.9,14.1
	c-1.8,5.4-2.7,11-2.7,16.6c0,4.7,0.4,9.5,1,14.2c0.3,3,4.3,2.3,5.5,0.5c0.7-1.1,0.9-2.7,1-4.1c1.1-10.8-0.5-27.1,8.9-34.8
	c2.7-2.2,4.6-1.7,6.1,1.4c2.5,5.2,1.7,10.7,0.7,15.9c-1.8,9.9-6.9,18.3-13.7,25.6c-5.1,5.5-11.8,8.6-18.7,11.4
	c-3.3,1.4-6.8,2.1-10.4,1.9c-2.7-0.2-4.7-1.6-5.6-4.2c-2-5.1-1.2-10.6,0.9-15.6c0.7-1.7,6.6-9.4,6.9-2.8c0.1,1.6-0.3,3.1-0.4,4.7
	c-0.1,2,2.2,2.4,3.7,1.7c3.9-1.9,5.1-9.5,2.6-12.6c-5-6.4-14-1.5-17.3,3.9c-3.8,6.2-5.4,13.2-4.7,20.4c0.7,7,7.3,13.5,14.5,12.4
	c5-0.7,9.9-2.6,14.7-4.3c3.3-1.1,4.6-0.8,4.7,2.8c0.2,6.4,0.2,12.7,0,19.1c-0.1,4.1-0.8,8.2-0.9,12.3c-0.1,8.5-2.7,15.9-8,22.5
	c-2.6,3.3-6.3,3.8-10.9,1.5c-2.4-1.2-3.7-4.4-2.3-8.1c1.6-4.1,3.5-8.1,5.8-11.8c2.9-4.5,8.4-7.5,8.9-13.3c0.3-3.6-5.1-2.4-6.5-1.1
	c-3,2.7-6,5.6-8.4,8.9c-4.5,6.2-8.3,12.9-7.9,20.9c0.5,9.9,8.1,14.8,16.6,14.4c6.9-0.4,11.9-4.4,15.3-10c4.4-7.1,6.1-15.1,6.8-23.3
	c0.3-4,0.4-8.1,0.4-12.1c0.1-4.2,0.8-7.9,4.2-10.8c5.5-4.7,10.7-9.8,16.2-14.5c2.8-2.4,5.8-4.7,8.8-6.8c1.8-1.2,3-0.4,3,1.8
	c0.2,7,0.6,14,0.4,21.1c-0.3,9.2-0.8,18.4-3.1,27.4c-1.3,5.2-3.4,9.5-8.6,11.7c-5.4,2.3-10.8-1.2-9.8-7.2c1.5-9.5,7.4-17.8,12-26.1
	c2.2-4-2.8-4.4-5.1-3.1c-3.7,2-6.6,7-8.6,10.6c-4.5,8-6.4,17.1-3.6,26c1.1,3.3,2.6,6.3,6.3,7.4c7.4,2.2,15.9-1.9,20-7.3
	c3.8-4.8,5.6-10.7,6.1-16.7c0.9-9.3,1-18.7,1.6-28.1c0.1-1,0.7-2.2,1.5-3c5.1-5,10.6-9.7,15.6-14.8c3.8-3.9,7.2-8.2,10.7-12.4
	c1.1-1.3,2.3-2.1,3.9-0.8c4.7,4.1,9.8,5.3,16,3.6c6.3-1.7,11-5,13.9-10.8c3.5-6.8,5.5-14.3,8.9-21.1c1-2.1,3.3-1.7,4.5-0.4
	C483.9,228.6,483,232.6,483,234.7C483.1,234.7,483,232.7,483,234.7z M268.7,240.2c0.8-2.9,3.7-9.8-0.8-11.3c-5.1-1.7-7,8.1-7.9,10.9
	c-3.6,11.7-7.1,23.4-10.6,35.1c-1.7,5.7-3.9,11-8.5,15c-1.9,1.6-3.8,3.1-5.9,4.3c-5,3-2.9-4.9-2.3-6.7c1.4-4.5,3-8.9,2.5-13.7
	c-0.2-2.4-0.5-5.1-3-6.3c-3.4-1.6-5.9-0.8-8.9,1.3c-1.9,1.3-5.9,6.4-8.3,4.2c-2.8-2.5-5.5-1.5-6.6,2.2c-2,6.7-3.9,13.5-6.3,20
	c-2.3,6.3-12.7,16.3-14.3,4.4c-0.1-0.9,0.4-1.8,0.6-2.7c0.5-2.6,1.9-11.3-4-7.4c-3.5,2.4-5,10.3-6.7,13.9c-1.1,2.3-3.4,3.6-5.2,2.9
	c-2.2-0.8-2.6-2.8-2.5-4.9c0.2-5.5,1.8-10.5,5.3-14.7c1.4-1.7,3.2-3.1,5-4.2c1.8-1.1,3.7-0.2,5.6,0.6c3.1,1.2,7.1-1.1,7.2-3.8
	c0-3.7-2.8-6.5-6.5-6.5c-7,0-12.5,3.2-16.4,8.6c-5.6,7.7-8.1,16.5-7.8,26.1c0.2,4.5,3.3,8.5,6.9,8.3c3.9-0.2,7.8-0.9,10.3-4.5
	c1-1.5,1.9-1.7,3.7-0.6c23.1,15.1,29.2-23.9,40.5-33.8c0.6-0.5,1.6-0.7,2.4-1c0.3,0.9,1.1,1.9,0.9,2.7c-1.3,5.5-3.9,10.7-5.1,16.2
	c-1.1,5,2,8.2,7,7.6c5.7-0.6,10.6-2.7,15.2-6c3.6-2.6,7.3-5.8,11.9-1.6c5.3,4.9,14-4.2,15.4-8.5c0.8-2.4-0.8-4.9-3.6-4.5
	c-3.2,0.5-2.2,3.6-4,5.4c-1.8,1.8-4.5,1.9-6.4,0.2c-2.8-2.6-1.2-8.3-0.3-11.3c2.5-8.1,5.1-16.2,7.8-24.3c1.1-3.3,7.2-4.5,10-5.4
	c2.4-0.7,3.5-3.7,1.8-5.7C275.1,238.7,270.9,240,268.7,240.2C269.2,238.5,270.7,240,268.7,240.2z M201.9,264.2
	c0.4-0.1,1.3-0.2,2.1-0.4c13.3-3.4,26.5-6.9,39.6-10.9c2-0.6,9.4-3.8,5-6.6c-3.7-2.4-8.5,0-12.3,0.9c-5.2,1.3-10.5,2.6-15.7,3.9
	c-4.6,1.1-24.8,3-24.9,9.2C195.6,263.5,199.4,264,201.9,264.2C202.3,264.1,200.9,264.1,201.9,264.2z"/>
<path class="st0" d="M483,234.7c0-2.1,0.8-6.1-0.8-7.8c-1.3-1.3-3.5-1.7-4.5,0.4c-3.4,6.8-5.5,14.3-8.9,21.1
	c-2.9,5.7-7.6,9.1-13.9,10.8c-6.2,1.6-11.3,0.5-16-3.6c-1.5-1.3-2.7-0.5-3.9,0.8c-3.5,4.2-6.9,8.5-10.7,12.4
	c-5,5.1-10.4,9.8-15.6,14.8c-0.8,0.7-1.4,1.9-1.5,3c-0.6,9.4-0.7,18.8-1.6,28.1c-0.6,6-2.3,11.8-6.1,16.7c-4.2,5.4-12.6,9.5-20,7.3
	c-3.7-1.1-5.2-4.1-6.3-7.4c-2.9-8.9-0.9-17.9,3.6-26c1.9-3.4,5-8.7,8.6-10.6c2.3-1.2,7.4-1,5.1,3.1c-4.6,8.3-10.4,16.6-12,26.1
	c-1,6,4.4,9.5,9.8,7.2c5.2-2.2,7.3-6.5,8.6-11.7c2.3-9,2.8-18.2,3.1-27.4c0.2-7-0.2-14-0.4-21.1c-0.1-2.2-1.3-3-3-1.8
	c-3.1,2.1-6,4.4-8.8,6.8c-5.5,4.8-10.7,9.8-16.2,14.5c-3.4,2.9-4.2,6.7-4.2,10.8c-0.1,4-0.1,8.1-0.4,12.1
	c-0.6,8.2-2.4,16.3-6.8,23.3c-3.5,5.6-8.4,9.6-15.3,10c-8.6,0.4-16.2-4.4-16.6-14.4c-0.4-8,3.4-14.7,7.9-20.9
	c2.4-3.3,5.4-6.1,8.4-8.9c1.4-1.3,6.8-2.6,6.5,1.1c-0.5,5.8-6,8.8-8.9,13.3c-2.3,3.7-4.3,7.7-5.8,11.8c-1.4,3.7-0.2,6.9,2.3,8.1
	c4.6,2.3,8.3,1.8,10.9-1.5c5.3-6.6,7.9-14.1,8-22.5c0.1-4.1,0.8-8.2,0.9-12.3c0.2-6.4,0.2-12.7,0-19.1c-0.1-3.6-1.4-4-4.7-2.8
	c-4.8,1.7-9.7,3.5-14.7,4.3c-7.2,1.1-13.8-5.5-14.5-12.4c-0.7-7.2,0.9-14.2,4.7-20.4c3.3-5.4,12.3-10.3,17.3-3.9
	c2.5,3.1,1.3,10.8-2.6,12.6c-1.5,0.7-3.9,0.3-3.7-1.7c0.1-1.6,0.5-3.1,0.4-4.7c-0.2-6.3-6.1,0.9-6.9,2.8c-2.1,5-2.9,10.4-0.9,15.6
	c1,2.6,2.9,4,5.6,4.2c3.6,0.2,7.1-0.5,10.4-1.9c6.8-2.8,13.5-5.9,18.7-11.4c6.8-7.3,12-15.7,13.7-25.6c0.9-5.2,1.8-10.7-0.7-15.9
	c-1.5-3.1-3.4-3.6-6.1-1.4c-9.3,7.6-7.7,24-8.9,34.8c-0.1,1.4-0.3,3-1,4.1c-1.2,1.9-5.2,2.5-5.5-0.5c-0.5-4.7-1-9.5-1-14.2
	c0.1-5.6,0.9-11.2,2.7-16.6c1.7-5.2,4.2-9.9,7.9-14.1c8.3-9.4,18.3-0.8,20.2,8.9c2.2,11.5-1.2,22.3-7,32.1
	c-4.4,7.4-8.9,13.4-14.6,19.8c-0.7,0.7-1.1,1.9-1.2,2.9c-0.2,1.6-0.6,11.5,3.6,7.6c11.4-10.4,23.2-20.5,34.2-31.4
	c11.2-11,24-23.3,22.6-40.5c-0.3-4.1-3-5.8-6.7-3.6c-6.8,4.1-9.8,10.9-12,18.1c-1.3,4.5-1.6,9-1.5,13.7c0,1-0.2,2-0.5,3
	c-1,3.1-4.5,2.6-5.6-0.2c-1.7-4.4-1.4-9-0.5-13.5c1.4-7.7,3.6-15.1,8.3-21.4c4.7-6.4,17.3-14.2,23.6-5.2c4.6,6.5,4.2,13.5,2.3,20.9
	c-2.6,9.8-8.4,17.6-14.8,25.1c-3.9,4.6-12.8,9.6-12.7,16.3c0,2.8-0.1,5.6,0.1,8.4c0.1,2,1.6,3.3,3.3,1.6
	c8.9-8.8,16.8-17.8,24.4-27.7c1.6-2,1.1-6.9,1.8-9.3c0.9-3.6,2.5-7.1,4.8-10c3.2-4.1,10.5-6,15-3.4c1.4,0.8,2.8,2.5,3,4
	c0.7,4.3-0.6,8.3-3.9,11.2c-0.8,0.7-2.4,0.6-3.6,0.8c-0.6-3-0.6-4,0.5-6.8c2.1-5.1-5.3-3.5-6.9-0.9c-4.7,7.5-3.2,25.1,9.6,20.1
	c7.5-2.9,11.7-8.6,14-16c1.7-5.6,3.3-11.3,4.7-17.1c0.3-1.1-0.4-2.5-0.4-3.7c-0.2-3.8,2.1-10.4,6.7-5.4c0.8,0.8,1.3,1.9,2.1,2.6
	c2.5,2.4,5,4.6,7.5,7c1,1,2.2,2.1,2.3,3.3c0.4,4.1,0.4,8.3,0.3,12.4c-0.1,4.6,0.7,6.5,4.3,9.1c1.7,1.2,4.2,0.8,3.7,3.8
	c-0.4,1.9-4.1,2.9-5.6,2.8c-6.1-0.3-10.4-5.1-10.5-11.3C483.1,238.4,483.1,236.6,483,234.7C483.1,234.7,483.1,234.7,483,234.7
	C483,232.7,483.1,234.7,483,234.7z"/>
<path class="st0" d="M268.7,240.2c2.2-0.2,6.3-1.4,8.1,0.5c1.8,2,0.5,5-1.8,5.7c-2.9,0.9-8.9,2.1-10,5.4c-2.7,8.1-5.3,16.1-7.8,24.3
	c-0.9,2.8-2.3,8.2-0.3,10.8c1.8,2.3,4.9,2.2,6.9,0.3c1.6-1.5,0.9-4.4,3.4-5.2c2.9-1,5.1,1.7,4.2,4.3c-1.4,4.3-10.1,13.3-15.4,8.5
	c-4.6-4.2-8.3-1.1-11.9,1.6c-4.6,3.3-9.6,5.5-15.2,6c-5,0.5-8.1-2.7-7-7.6c1.2-5.5,3.9-10.7,5.1-16.2c0.2-0.8-0.6-1.8-0.9-2.7
	c-0.8,0.3-1.8,0.5-2.4,1c-11.4,9.9-17.4,48.9-40.5,33.8c-1.8-1.1-2.7-0.9-3.7,0.6c-2.5,3.6-6.4,4.3-10.3,4.5
	c-3.6,0.2-6.7-3.8-6.9-8.3c-0.3-9.6,2.2-18.4,7.8-26.1c3.9-5.4,9.4-8.6,16.4-8.6c3.7,0,6.6,2.8,6.5,6.5c0,2.7-4.1,5-7.2,3.8
	c-1.9-0.7-3.8-1.7-5.6-0.6c-1.8,1.1-3.6,2.6-5,4.2c-3.6,4.2-5.1,9.2-5.3,14.7c-0.1,2.1,0.3,4.1,2.5,4.9c1.8,0.7,4.1-0.6,5.2-2.9
	c1.7-3.5,3.3-11.6,6.7-13.9c5.6-3.8,4.4,4.6,4,7.4c-0.2,0.9-0.7,1.9-0.6,2.7c1.6,11.9,12,1.9,14.3-4.4c2.4-6.6,4.3-13.3,6.3-20
	c1.1-3.7,3.8-4.7,6.6-2.2c2.5,2.2,6.6-3,8.3-4.2c2.9-2,5.4-2.9,8.9-1.3c2.5,1.2,2.8,3.9,3,6.3c0.5,4.7-1.2,9.2-2.5,13.7
	c-0.5,1.7-2.9,9.8,2.3,6.7c2.1-1.3,4.1-2.7,5.9-4.3c4.6-4,6.8-9.3,8.5-15c3.4-11.7,7-23.4,10.6-35.1c0.9-3,2.8-12.7,7.9-10.9
	C272.4,230.4,269.5,237.2,268.7,240.2C270.7,240,269.2,238.5,268.7,240.2z"/>
<path class="st0" d="M309.4,290.3c0.1-0.1,0.3-0.2,0.4-0.4C310.4,289.3,309.2,290.2,309.4,290.3z"/>
<path class="st0" d="M201.9,264.2c-2.5-0.1-6.3-0.6-6.2-4c0.1-4.3,6.2-4.6,9.2-5.3c5.2-1.3,10.5-2.6,15.7-3.9
	c5.2-1.3,10.5-2.6,15.7-3.9c3.8-0.9,8.6-3.2,12.3-0.9c4.3,2.8-3.1,6-5,6.6c-13.1,4-26.3,7.5-39.6,10.9
	C203.2,264,202.3,264.1,201.9,264.2C200.9,264.1,202.3,264.1,201.9,264.2z"/>
<path class="st0" d="M155.2,312.7c-3.3-0.1-5.1-1.2-5.8-4.5c-0.7-3.3-0.7-6.8-0.9-10.2c-0.4-5.1-1.1-9.8-6-13c-3-1.9-3-6.5-6-8.1
	c-3.7-1.9-6,1.2-6.2,4.4c-0.3,4.6,0.7,7.2-0.5,11.9c-1.3,5-2.6,9.9-4.4,14.8c-2.9,8.1-6.2,16.1-13.8,21.1c-2.6,1.7-5.1,3.6-7.6,5.4
	c-0.1,0.1-0.3,0.2-0.5,0.3c-0.2-0.1-0.5-0.3-0.7-0.4c0.6-4.3,2.6-8.1,3.8-12.3c1.9-6.9,3.7-13.7,5.4-20.7c0.8-3.3,5.5-14.9,1.3-17.3
	c-8-4.5-12.1,23.5-13.3,27.5c-3.5,11.7-19.7,18.7-19.4,1.6c0.2-15.1,6.9-31.6,12.6-45.4c1.6-3.8,1.7-4.3,5.2-2.9
	c3.6,1.5,6,3.9,10,4.6c8.3,1.5,15.6-2.8,19-10.4c5.9-13-7.4-28.7-21-22.2c-2.9,1.4-7.7,7.3-10.7,7.3c-3.2,0-2.6-4.3-3.2-6.6
	c-0.7-2.5-2.6-6.4-6.1-4.4c-3.1,1.9-1.6,9.3-1.2,12.4c0.6,3.9,3,7.4,2.3,11.4c-0.6,3.6-3.3,7-4.8,10.3c-4.1,8.7-6.5,18-9,27.2
	c-2.6,9.6-4.3,23.2,0.8,32.2c2.2,3.9,7,7.2,11.6,6.7c1.3-0.1,3.9-2,5.2-1c1.7,1.4-1,7.7-1.3,8.9c-3.6,13.8-7.3,27.6-11.7,41.2
	c-1.3,3.9-3.9,6.7-7.7,8.2c-14,5.5-9.8-17-3.7-22.3c3.5-3.1,11.5-6.2,13.1-10.8c3-8.5-6.5-4.3-9.7-2.4c-9.2,5.5-16.3,13.2-18,24.1
	c-1.3,8.1,0.9,16.6,10.9,19.2c4.6,1.2,9.2,1.4,13.6-0.9c6.2-3.2,9.5-8.8,11.4-15c2.4-7.6,4.5-15.2,6.7-22.9
	c1.6-5.5,2.4-12.6,7.9-15.7c12.6-7.2,24.5-16,29.2-30.3c2.1-6.5,3.6-13.2,6-19.7c0.2,0,0.5,0,0.7,0c3.6,7,0.7,16.2,5.7,22.7
	c3.3,4.3,12.8,6.5,16.5,1.2C164.2,313.5,158.2,312.7,155.2,312.7z M113.1,243.5C108.7,243.2,119,243.5,113.1,243.5
	c5.8,0,9.2,4.7,7.9,10.9c-1.7,7.7-11.2,10.6-17.1,5C97.2,253.1,105.2,243,113.1,243.5z"/>
<path class="st0" d="M554.5,232.9c-1.6,1.5-3,3.3-4.1,5.2c-3.2,5.2-7.7,9-12.9,12c-0.5,0.3-1.1,0.2-1.7,0.3
	c-0.1-1.8,0.1-3.4,0.6-5.2c3.9-12.3,8-24.5,11.3-37c0.4-1.4,0.9-3.2-1.2-4.1c-1.9-0.9-3.6-0.8-4.8,1.1c-1.4,2.1-3,4.2-3.9,6.5
	c-2,5.2-3.5,10.6-5.3,15.9c-1.4,4.2-3.4,8.6-7.5,10.8c-3.7,2-9.8,2.7-12.1-1.7c-1.6-3.2-1.5-6.4-0.4-9.7c1.4-4.1,3-8.1,4.5-12.2
	c0.5-1.3,1-2.8,0.9-4.1c-0.3-3.6-5.6-2.1-6.8-0.1c-0.9,1.5-1.6,3.1-2.3,4.6c-3,6.8-5.8,13.7-4.6,21.4c1.2,7.3,3.7,11.2,11.1,11.7
	c1.4,0.1,11.9-2.9,11.4,0c-0.7,4.5-1.2,9.2-5.3,12.2c-7.9,5.8-16.1,11.3-23.8,17.4c-10.1,8.1-13.4,18.4-6.4,30.3
	c1.4,2.4,3.5,4.3,6.5,4.8c5.3,0.9,10.7,1.9,15-2.1c4.6-4.3,6.7-10,8.6-15.6c3.2-9.2,5.9-18.6,8.8-27.9c0.8-2.5,2-4.4,4.3-5.9
	c7.3-4.8,14.7-9.5,20.2-16.5c2-2.5,4.1-5,5-8.8c0,0.3,0.1,0,0.3-1.9C558.5,232.2,557,230.5,554.5,232.9z M519.1,275.4
	c-0.1,1.2-0.3,2.4-0.6,3.6c-0.1,0.3-0.2,0.6-0.2,0.9c-0.3,1.2-0.8,2.4-1.2,3.5c-0.1,0.3-0.2,0.6-0.3,0.9c-0.2,0.6-0.4,1.1-0.6,1.7
	c-1.9,5.1-3.9,10.2-6.2,15.1c-0.2,0.4-0.4,0.8-0.6,1.1c-1.6,2.4-4.2,3.5-7.4,3.3c3.6,0.2-4.4,0,0,0c-2.2,0-3.8-0.5-4.8-1.6
	c0,0,0,0,0,0c-0.8-0.8-1.2-1.9-1.5-3.2c-0.1-0.5-0.1-1-0.1-1.5c-0.3-7.8,3.4-13.4,9.3-18c3.7-2.9,7.4-5.6,11.2-8.3
	c0.6-0.4,1.3-0.5,2.1-0.7c0.2-0.1,0.5-0.1,0.7-0.2h0c0.1,0.3,0.1,0.6,0.2,0.9s0.1,0.6,0.1,0.9s0,0.6,0,0.9
	C519.1,274.8,519.1,275.1,519.1,275.4z"/>
<g>
	<path class="st0" d="M309.4,290.3c0.1-0.1,0.3-0.2,0.4-0.4C310.4,289.3,309.2,290.2,309.4,290.3z"/>
	<path class="st0" d="M320.2,282.9c-1.7-0.4-5.2,2.6-6.5,3.5c-1.4,1-2.7,2.3-3.9,3.5c-0.1,0.1-0.2,0.2-0.4,0.4
		c-0.2-0.1-0.4-0.2-0.6-0.3c-0.1-1.2-0.4-2.4-0.1-3.6c0.7-3.9,1.6-7.7,2.6-11.5c1.7-6.6,3.4-13.2,5.2-19.8c2.2-8.1,5-16,4.8-24.5
		c-0.1-4-1.4-7.3-5.1-9.2c-5.3-2.7-12.5-2.2-17.2,1.5c-2.3,1.8-7,8.5-2,10.4c2.6,1,16.7-14.8,16.9-2c0.1,6.3-2.3,11.9-3.9,17.7
		c-4.1,15.1-8.3,30.1-12.7,45c-3.2,10.8-15.3,18.4-23.6,25.8c-9,7.9-13.4,22.3-8.1,33.4c2.7,5.6,7.9,8.2,14,7.1
		c7.1-1.3,11.7-11,13.8-17.1c3.7-11,6.8-22.2,10.2-33.4c1.1-3.5,1.2-6.2,3.8-8.9c2.8-2.9,6.4-5.3,9.4-8.1c2-1.9,3.8-4,5.5-6.2
		C323.6,284.5,321.7,283.3,320.2,282.9z M282.7,348.4c-1.1,1.8-2.6,3.1-5.8,3.1s-4.8-5-5.4-8.8c-0.5-3.8,4.6-13.4,6.1-15.1
		c1.5-1.7,14.9-13.7,14.9-13.7C292.1,318.5,283.8,346.6,282.7,348.4z"/>
</g>
</svg>
