<?xml version="1.0" encoding="utf-8"?>
<!-- Generator: Adobe Illustrator 19.1.0, SVG Export Plug-In . SVG Version: 6.00 Build 0)  -->
<svg version="1.1" id="Layer_1" xmlns="http://www.w3.org/2000/svg" xmlns:xlink="http://www.w3.org/1999/xlink" x="0px" y="0px"
	 viewBox="0 0 612 279" style="enable-background:new 0 0 612 279;" xml:space="preserve">
<style type="text/css">
	.st0{fill:#EAE9DF;stroke:#EAE9DF;stroke-width:0.5;stroke-miterlimit:10;}
	.st1{fill:#EAE9DF;}
</style>
<g>
	<path class="st0" d="M364.9,211.2V223c0,0.6-0.5,1.1-1.1,1.1c-0.6,0-1.1-0.5-1.1-1.1v-8.4l-2.9,4c-0.2,0.3-0.5,0.5-0.9,0.5h0h0
		c-0.4,0-0.7-0.2-0.9-0.5l-2.9-4v8.4c0,0.6-0.5,1.1-1.1,1.1c-0.6,0-1.1-0.5-1.1-1.1v-11.8c0-0.6,0.5-1.1,1.1-1.1c0,0,0,0,0.1,0
		c0.3,0,0.7,0.2,0.9,0.5l4,5.5l4-5.5c0.2-0.3,0.5-0.5,0.9-0.5c0,0,0,0,0,0C364.4,210.1,364.9,210.6,364.9,211.2z"/>
	<path class="st0" d="M380.3,211.8c1.2,1.3,2,3.1,2,5.1c0,2-0.8,3.8-2,5.1c-1.2,1.3-2.9,2.1-4.8,2.1c-1.9,0-3.7-0.8-4.9-2.1
		c-1.2-1.3-2-3.1-2-5.1c0-2,0.7-3.8,2-5.1c1.2-1.3,3-2.1,4.9-2.1C377.4,209.7,379.1,210.5,380.3,211.8z M380.1,216.9
		c0-1.4-0.5-2.6-1.4-3.5c-0.8-0.9-2-1.4-3.2-1.4c-1.3,0-2.4,0.5-3.2,1.4c-0.8,0.9-1.4,2.1-1.4,3.5s0.5,2.6,1.4,3.5
		c0.8,0.9,2,1.4,3.2,1.4c1.2,0,2.3-0.5,3.2-1.4C379.5,219.5,380.1,218.3,380.1,216.9z"/>
	<path class="st0" d="M394.2,212.3H391V223c0,0.6-0.5,1.1-1.1,1.1c-0.6,0-1.1-0.5-1.1-1.1v-10.7h-3.2c-0.6,0-1.1-0.5-1.1-1.1
		c0-0.6,0.5-1.1,1.1-1.1h8.6c0.6,0,1.1,0.5,1.1,1.1C395.3,211.8,394.8,212.3,394.2,212.3z"/>
	<path class="st0" d="M399.1,211.2c0-0.6,0.5-1.1,1.1-1.1c0.6,0,1.1,0.5,1.1,1.1V223c0,0.6-0.5,1.1-1.1,1.1c-0.6,0-1.1-0.5-1.1-1.1
		V211.2z"/>
	<path class="st0" d="M416.6,211.8c1.2,1.3,2,3.1,2,5.1c0,2-0.8,3.8-2,5.1c-1.2,1.3-2.9,2.1-4.8,2.1c-1.9,0-3.7-0.8-4.9-2.1
		c-1.2-1.3-2-3.1-2-5.1c0-2,0.7-3.8,2-5.1c1.2-1.3,3-2.1,4.9-2.1C413.6,209.7,415.4,210.5,416.6,211.8z M416.3,216.9
		c0-1.4-0.5-2.6-1.4-3.5c-0.8-0.9-2-1.4-3.2-1.4c-1.3,0-2.4,0.5-3.2,1.4c-0.8,0.9-1.4,2.1-1.4,3.5s0.5,2.6,1.4,3.5
		c0.8,0.9,2,1.4,3.2,1.4c1.2,0,2.3-0.5,3.2-1.4C415.8,219.5,416.3,218.3,416.3,216.9z"/>
	<path class="st0" d="M424.6,223c0,0.6-0.5,1.1-1.1,1.1c-0.6,0-1.1-0.5-1.1-1.1v-11.6c0,0,0,0,0,0c0-0.3,0.1-0.7,0.4-0.9
		c0.5-0.3,1.2-0.2,1.5,0.2l6.5,9v-8.3c0-0.6,0.5-1.1,1.1-1.1c0.6,0,1.1,0.5,1.1,1.1V223c0,0.6-0.5,1.1-1.1,1.1
		c-0.3,0-0.6-0.2-0.8-0.4c0,0-0.1-0.1-0.1-0.1l-6.4-8.9V223z"/>
	<path class="st0" d="M437.5,222.6l4.9-11.7c0.2-0.6,0.9-0.8,1.5-0.6c0.5,0.2,0.8,0.9,0.6,1.4l-4.9,11.7c-0.2,0.4-0.6,0.7-1,0.7
		c-0.1,0-0.3,0-0.4-0.1C437.5,223.8,437.3,223.1,437.5,222.6z"/>
	<path class="st0" d="M448.3,223v-11.8c0-0.6,0.5-1.1,1.1-1.1h2.4c3.9,0,7,3.1,7,7c0,3.9-3.1,7-7,7h-2.4
		C448.8,224.1,448.3,223.6,448.3,223z M450.6,221.9h1.2c2.6,0,4.8-2.1,4.8-4.8c0-2.6-2.1-4.8-4.8-4.8h-1.2V221.9z"/>
	<path class="st0" d="M462.1,223v-11.8c0-0.6,0.5-1.1,1.1-1.1h0c0,0,0,0,0,0h6.5c0.6,0,1.1,0.5,1.1,1.1c0,0.6-0.5,1.1-1.1,1.1h-5.4
		v3.7h4.7c0.6,0,1.1,0.5,1.1,1.1c0,0.6-0.5,1.1-1.1,1.1h-4.7v3.7h5.4c0.6,0,1.1,0.5,1.1,1.1c0,0.6-0.5,1.1-1.1,1.1h-6.5c0,0,0,0,0,0
		l0,0C462.6,224.1,462.1,223.6,462.1,223z"/>
	<path class="st0" d="M474.4,220.6c0.4-0.4,1-0.5,1.5-0.1c0.9,0.7,2.4,1.6,3.8,1.5c1,0,1.9-0.3,2.5-0.7s0.9-0.9,0.9-1.4
		c0-0.3-0.1-0.4-0.2-0.6s-0.3-0.4-0.6-0.6c-0.6-0.4-1.6-0.7-2.7-0.9h0c-0.9-0.2-1.8-0.4-2.6-0.8c-0.8-0.4-1.4-0.9-1.9-1.6
		c-0.3-0.5-0.5-1-0.5-1.6c0-1.2,0.7-2.2,1.6-2.9c0.9-0.7,2.2-1.1,3.5-1.1c1.9,0,3.3,0.9,4.4,1.6c0.5,0.3,0.6,1,0.3,1.4
		c-0.3,0.5-0.9,0.6-1.4,0.3c-1-0.7-2-1.3-3.2-1.3c-0.9,0-1.7,0.3-2.2,0.7c-0.5,0.4-0.8,0.8-0.8,1.3c0,0.2,0,0.4,0.1,0.6
		c0.1,0.2,0.3,0.3,0.5,0.5c0.5,0.4,1.4,0.7,2.5,0.9h0c1,0.2,2,0.5,2.8,0.8c0.8,0.4,1.5,0.9,2,1.7c0.3,0.5,0.5,1.1,0.5,1.7
		c0,1.3-0.7,2.4-1.7,3.1c-1,0.7-2.3,1.1-3.7,1.1c-2.2,0-4-1.1-5.1-2C474.1,221.7,474.1,221.1,474.4,220.6z"/>
	<path class="st0" d="M488.8,211.2c0-0.6,0.5-1.1,1.1-1.1c0.6,0,1.1,0.5,1.1,1.1V223c0,0.6-0.5,1.1-1.1,1.1c-0.6,0-1.1-0.5-1.1-1.1
		V211.2z"/>
	<path class="st0" d="M494.9,216.9c0-4,3.3-7.2,7.4-7.2c1.7,0,3.3,0.6,4.6,1.6c0.5,0.4,0.6,1.1,0.2,1.6c-0.4,0.5-1.1,0.6-1.6,0.2
		c-0.9-0.7-2-1.1-3.2-1.1c-1.4,0-2.7,0.5-3.6,1.5c-0.9,0.9-1.5,2.1-1.5,3.5c0,1.3,0.6,2.5,1.5,3.4c0.9,0.9,2.2,1.5,3.6,1.5
		c1,0,1.9-0.3,2.7-0.8v-2.7h-2.9c-0.6,0-1.1-0.5-1.1-1.1c0-0.6,0.5-1.1,1.1-1.1h3.9c0,0,0,0,0,0c0,0,0,0,0,0c0.6,0,1.2,0.5,1.2,1.1
		v4.4c0,0.1,0,0.2-0.1,0.3c0,0,0,0.1,0,0.1v0c-0.1,0.2-0.2,0.3-0.4,0.5c-1.3,1-2.8,1.6-4.6,1.6C498.2,224.1,494.9,220.9,494.9,216.9
		z"/>
	<path class="st0" d="M514.4,223c0,0.6-0.5,1.1-1.1,1.1c-0.6,0-1.1-0.5-1.1-1.1v-11.6c0,0,0,0,0,0c0-0.3,0.1-0.7,0.4-0.9
		c0.5-0.3,1.2-0.2,1.5,0.2l6.5,9v-8.3c0-0.6,0.5-1.1,1.1-1.1s1.1,0.5,1.1,1.1V223c0,0.6-0.5,1.1-1.1,1.1c-0.3,0-0.6-0.2-0.8-0.4
		c0,0-0.1-0.1-0.1-0.1l-6.4-8.9V223z"/>
</g>
<g>
	<path class="st1" d="M373.5,145c1.3,1.7,2.4,3.3,3.5,4.9c0.1,0.2,0,0.6-0.2,0.8c-2.2,3.8-4.6,7.4-6.6,11.3
		c-1.7,3.2-2.8,6.8-2.9,10.5c-0.1,3.1,0.4,4.7,3.1,5.8c1.9,0.9,4,0.8,6,0c3.6-1.5,5.5-4.4,7-7.8c1.4-3.1,1.8-6.5,2.3-9.8
		c0.9-6.2,1.3-12.4,1.3-18.7c0-6.4-0.2-12.9-0.3-19.3c0-1.3-1.3-2.1-2.6-1.3c-1.7,1.1-3.4,2.3-5,3.6c-5.5,4.8-10.9,9.6-16.3,14.4
		c-1.5,1.3-2.9,2.8-4.3,4.3c-1.1,1.2-1.6,2.8-1.6,4.4c-0.1,3.6-0.1,7.1-0.2,10.7c-0.1,2.2-0.4,4.5-0.7,6.7c-0.3,2.1-0.4,4.2-0.9,6.2
		c-0.7,2.8-1.7,5.6-2.9,8.3c-1.1,2.3-2.3,4.3-4,6.2c-3.1,3.5-6.9,5.6-11.6,5.9c-5.1,0.3-9.6-1.3-12.6-5.6c-2.8-4-3.3-8.4-1.9-13
		c0.8-2.7,1.7-5.4,2.9-7.8c1.9-3.8,4.1-7.3,7.3-10.1c1.2-1.1,2.4-2.2,3.6-3.2c0.5-0.5,1.2-0.8,1.7-1.2c1.2,2,2.3,3.9,3.5,6
		c-0.6,0.6-1.2,1.3-2,2c-4.3,4-7.4,8.8-9.6,14.2c-1.1,2.6-1.1,5.5-0.1,8.3c1.2,3.1,5.7,4.3,8.7,2.4c2.4-1.5,4.1-3.7,5.5-6.1
		c1.8-2.8,3.2-5.8,4.3-9c0.6-1.8,0.8-3.7,1.1-5.6c0.3-2.2,0.3-4.4,0.5-6.6c0.7-6,0.4-12.1,0.2-18.1c-0.1-2.5-0.5-5-0.9-7.5
		c-0.2-1.5-1.1-1.9-2.6-1.4c-1.8,0.6-3.6,1.3-5.3,2.1c-3.8,1.8-7.9,2.4-12.1,2.3c-1.6,0-2.9-1-4.3-1.7c-2-1.1-2-1.1-3.6,0.6
		c-1.6,1.7-3.1,3.5-4.7,5.1c-3.7,3.6-7.6,7-11.4,10.5c-0.6,0.6-1.4,1-2.1,1.5c-2.5,1.9-3.7,4.5-4.3,7.5c-0.7,3.5-1.7,7-2.5,10.4
		c-1,4-2,8-3.1,11.9c-0.6,2-1.3,3.9-1.9,5.9c-1.3,4-3.1,7.8-5.1,11.4c-0.8,1.5-2.3,2.3-3.8,3.1c-0.5,0.3-1.1,0.4-1.5,0.7
		c-2.9,1.6-6.1,1.6-9.3,1.3c-1.1-0.1-2.2-0.5-3.3-0.7c-1.4-0.3-2.1-1.5-2.7-2.6c-2-3.5-3-7.2-2.9-11.2c0.1-5.5,1.4-10.6,4.5-15.2
		c1.1-1.6,2.7-2.9,4.1-4.4c3.8-4.1,8.3-7.3,12.5-10.8c2.5-2.2,5.1-4.3,7.5-6.6c0.7-0.7,1.3-1.8,1.5-2.8c1.2-4.5,2.3-9.1,3.5-13.6
		c1.4-4.9,2.9-9.8,4.3-14.7c1.2-4.3,2.5-8.5,3.7-12.8c0.5-1.7,1-3.4,1.5-5c0.9-3.3,1.9-6.6,2.7-9.9c0.4-1.6,0.4-3.4,0.4-5
		c0-3.7-3-4.9-5.8-4c-2.6,0.9-5.2,1.9-8,2.8c-0.4-1.5-0.9-3.1-1.3-4.7c-0.1-0.2,0.2-0.6,0.4-0.8c1.1-0.7,2.1-1.4,3.2-1.8
		c1.7-0.6,3.4-1.1,5.1-1.5c1.4-0.4,2.8-0.4,4.2,0.1c1.1,0.4,2.3,0.8,3.5,1c1.8,0.4,4.6,3.8,4.9,5.8c0.6,4.2,0.1,8.2-0.7,12.3
		c-1.1,5.8-3,11.3-4.8,16.8c-0.9,2.8-1.6,5.6-2.3,8.4c-0.6,2.4-1,4.8-1.5,7.1c-0.7,3-1.4,5.9-2.2,8.9c-0.2,0.6-0.4,1.3-0.4,1.9
		c0,0.5,0.3,1.3,0.7,1.5c0.4,0.2,1.2,0,1.6-0.3c0.7-0.4,1.4-1,2-1.7c3.4-3.6,6.9-7.2,10.3-10.8c0.9-1,1.2-1.8,0.9-3.3
		c-0.5-2.3-0.5-4.8-0.4-7.3c0.2-3.8,1.3-7.4,2.9-10.9c1.9-4.1,4.6-7.5,9.3-8.4c2.9-0.6,5.5,0.4,7.6,2.3c0.9,0.8,1.2,1.9,1.4,3.1
		c0.3,1.8,0.4,3.6,0,5.4c-0.2,0.7-0.3,1.4-0.7,1.9c-1.2,2-2.5,4-3.8,5.9c-0.4,0.5-0.9,0.9-1.5,1.4c-0.4-0.7-0.7-1.3-1.1-1.8
		c-0.5-0.8-1.1-1.6-1.7-2.3c-0.6-0.8-0.7-1.3-0.2-2.1c1-1.7,2.1-3.4,2.5-5.3c0.2-1,0.2-1.8-0.6-2.5c-1-0.8-1.9-0.8-2.9,0
		c-0.8,0.6-1.4,1.3-1.9,2.2c-1.9,3-2.6,6.4-3,9.9c-0.3,2.6,0.2,5.1,1.1,7.5c0.7,2,3.6,3.6,5.7,3.3c0.4-0.1,0.7-0.2,1.1-0.1
		c2.4,0.2,4.5-0.5,6.8-1.3c4.2-1.4,8.1-3.6,11.9-5.8c4.1-2.4,7.3-5.8,10.1-9.6c3.2-4.4,5.7-9.2,7.6-14.3c0.7-1.9,1-4,1.2-6
		c0.3-3.2,1-6.3,0.3-9.5c-0.4-1.7-1.1-3.3-1.9-4.9c-0.8-1.5-2.7-1.7-4.1-0.7c-3.7,2.6-5.7,6.3-6.4,10.6c-0.9,5-1.6,10-2.3,15.1
		c-0.2,1.2,0,2.5-0.1,3.7c0,0.3-0.1,0.7-0.3,0.8c-2,1.2-4.1,2.4-6.3,3.7c-0.2-1.2-0.4-2.2-0.4-3.2c-0.4-6-0.6-11.9,0.5-17.9
		c0.7-4,2.1-7.8,4.2-11.3c1.7-2.9,3.7-5.5,6.1-7.9c3.5-3.4,8-3.3,11.6-0.7c0,0,0.1,0.1,0.1,0.1c3.4,1.9,4.5,5.3,5.4,8.8
		c0.9,3.5,0.9,7.1,0.8,10.6c-0.1,3.4-1.1,6.6-2.3,9.8c-1.3,3.6-3,7.1-5,10.4c-1.1,1.9-1.9,4-3.1,5.8c-1.7,2.5-3.5,4.9-5.4,7.2
		c-1.4,1.6-3.1,3-4.7,4.5c-0.3,0.3-0.5,0.7-0.5,1.1c-0.2,2.5-0.3,4.9-0.4,7.4c0,0.4,0.1,1,0.4,1.3c0.6,1,1.7,1.1,2.6,0.3
		c1.5-1.4,2.9-2.9,4.4-4.3c0.9-0.9,1.8-1.7,2.8-2.5c4.9-4.4,9.8-8.8,14.6-13.2c3.6-3.3,7.3-6.6,10.7-10c3.3-3.3,6.6-6.7,9.7-10.2
		c2.5-2.9,4.6-6.1,6.2-9.6c1-2.2,2-4.4,2.7-6.6c0.6-1.7,0.8-3.6,1-5.4c0.2-1.5,0-3,0-4.5c0-1.4-0.6-2.6-1.6-3.6
		c-0.8-0.8-2-0.8-3.2-0.2c-4.3,2.2-7.2,5.7-9.5,9.9c-1.6,2.9-2.4,6-3.2,9.2c-0.7,2.7-1.1,5.5-1,8.3c0,0.3-0.3,0.8-0.6,1
		c-1.7,1.1-3.4,2-5.3,3.1c-0.2-0.6-0.3-1.1-0.4-1.5c-0.6-3.4-0.1-6.8,0.4-10.2c0.6-3.7,1.6-7.2,3-10.6c2.1-5.4,5-10.3,10-13.8
		c1.7-1.2,3.7-1.9,5.7-2.3c0.7-0.2,1.4-0.4,2.1-0.5c3.1-0.4,5.9,0.6,7.8,3.1c2.2,2.9,3.7,6.2,3.8,10c0.1,4.4-1.1,8.6-2.4,12.7
		c-1.1,3.3-2.8,6.3-4.7,9.3c-3.2,5-6.8,9.7-11,13.9c-1.3,1.3-2.8,2.4-4.1,3.7c-1,1-2,2-2.9,3c-1.2,1.4-1.5,3.2-1.5,4.9
		c0,2.7,0.2,5.5,0.3,8.2c0.1,1.4,1.1,1.9,2.3,1.1c1.4-1,2.6-2.1,3.8-3.3c1.4-1.3,2.6-2.8,3.9-4.2c4.8-4.8,9.1-10.2,13.3-15.6
		c1.2-1.6,1.9-3.4,1.9-5.5c0-2.9,0.7-5.6,1.8-8.2c0.7-1.7,1.4-3.4,2.3-4.9c1.9-3.1,4.5-5.5,8.1-6.2c3.3-0.7,6.7-0.7,9.3,2
		c1.5,1.5,1.7,3.3,1.4,5.2c-0.3,1.9-0.9,3.9-1.5,5.8c-0.5,1.7-1.8,2.9-3,4.1c-0.7,0.7-1.5,1.2-2.3,1.7c-0.9,0.6-1.3,0.4-1.7-0.5
		c-0.4-1-0.8-1.9-1.4-3.2c0.7-0.9,1.5-1.9,2.4-2.9c1.1-1.2,1.4-2.5,0.9-4c-0.5-1.6-2.3-2.3-3.6-1.4c-1.7,1.1-2.7,2.7-3.5,4.5
		c-1.4,3.2-1.9,6.5-2.1,10c-0.1,2.7,2.3,5.6,4.9,6.1c1.4,0.3,2.9,0.5,4.3,0.7c0.7,0.1,1.5,0.1,2.2-0.1c1.9-0.7,3.9-1.5,5.3-3.1
		c3-3.1,5.2-6.8,6.9-10.7c1.3-3,2.7-6,3.7-9.2c0.7-2.2,0.9-4.6,1.1-6.9c0.2-1.9,0-3.9,0-5.8c0-0.2,0-0.6,0.2-0.7
		c1.4-1.3,2.8-2.5,4.3-3.8c-0.1-0.1-0.1-0.3-0.2-0.4c0.4,0.5,0.9,1,1.3,1.5c1.8,2.6,3.6,5.1,6.2,6.8c0.9,0.6,1.9,1.2,2.8,1.7
		c1,0.5,1.4,1.3,1.7,2.3c0.6,2.4,0.4,4.8,0.4,7.2c0,1.7-0.3,3.4-0.2,5.2c0,1.6,0.1,3.2,0.4,4.8c0.1,0.7,0.7,1.5,1.2,2
		c1.1,0.9,2.3,1.5,3.6,2.3c0,0.1-0.2,0.3-0.4,0.6c-1.1,1.3-2.2,2.6-3.3,3.8c-0.2,0.2-0.6,0.4-0.8,0.4c-1.7-0.5-3.3-1-4.7-2.1
		c-2.2-1.8-3.1-4.3-3.2-7c-0.1-2.8,0-5.6,0-8.5c0-1.2,0-2.5-0.3-3.6c-0.2-0.7-0.8-1.3-1.3-1.9c-0.1-0.1-0.8,0-1,0.2
		c-0.5,0.7-0.9,1.4-1.2,2.2c-1.9,5-3.2,10.1-5.7,14.9c-2.3,4.3-5,8.3-8.7,11.4c-1.9,1.6-4.3,2.5-6.6,3.6c-3.4,1.7-7,1.3-10.5,0.4
		c-0.6-0.2-1.2-0.4-1.7-0.7c-1.8-1.1-3.7-1.9-5-3.6c-0.6-0.8-1.2-0.9-2-0.2c-1.1,1-2.2,2-3.1,3.2c-3.7,5-8.1,9.5-12.5,13.9
		c-2.5,2.5-5.3,4.6-7.9,6.9c-0.2,0.2-0.4,0.3-0.6,0.4c-0.9,0.7-1.3,1.5-1.3,2.8c0.1,2.3-0.2,4.6-0.3,6.9c-0.2,3.3-0.2,6.7-0.5,10
		c-0.3,3.9-0.9,7.7-1.4,11.6c-0.4,3.8-1.8,7.4-3.7,10.7c-2.3,3.8-5.9,6.2-10.1,7.6c-1.2,0.4-2.5,1-3.8,0.9c-2.2,0-4.5-0.2-6.6-0.8
		c-2.8-0.9-4.4-3.4-5.4-6c-1-2.5-1-5.2-0.8-7.8c0.3-3.8,1.1-7.5,2.6-11c1.5-3.7,3.7-7.1,6.4-10.1c1-1.1,1.9-2.4,2.9-3.6
		C373,145.7,373.2,145.4,373.5,145z M269.5,189.4c0,0.5,0,1,0.1,1.5c0.5,1.6,1.2,3.2,2.9,3.7c2.1,0.6,4.2,0.3,6.2-0.8
		c1.8-1,2.6-2.8,3.2-4.6c0.7-2.3,1.4-4.6,2-6.9c1.6-5.7,3.2-11.5,4.7-17.3c0.1-0.4,0-1.2-0.2-1.3c-0.4-0.2-1.1-0.1-1.6,0
		c-0.2,0-0.4,0.3-0.6,0.5c-3.2,3-6.4,6-9.6,9.1C272.2,177.7,269.6,183,269.5,189.4z"/>
	<path class="st1" d="M91.3,198c0.7,2.5,1.3,4.8,1.9,7.1c0.1,0.2-0.2,0.6-0.5,0.8c-1.8,1.2-3.6,2.4-5.4,3.6
		c-2.9,1.9-5.4,4.1-6.8,7.4c-1.2,2.9-2.2,5.9-2.3,9.1c-0.1,2.7,0.9,5,3.5,6.2c2.6,1.2,5,1.3,7.5-0.3c2.8-1.8,4.4-4.3,5.6-7.4
		c1.5-3.8,2.9-7.7,3.9-11.7c1.2-4.6,2.4-9.2,3.6-13.8c0.8-3.2,1.6-6.5,2.4-9.7c0.4-1.8,0.8-3.6,1.2-5.3c0.3-1,0.7-1.9,1-2.9
		c0.2-0.7,0.1-1.4-0.6-1.8c-0.6-0.4-1.2-0.4-1.8,0c-2.4,1.5-4.9,1.2-7.4,0.4c-2-0.7-3.7-2-4.9-3.8c-0.5-0.8-1-1.5-1.5-2.3
		c-1.3-2-2-4.2-2-6.6c-0.1-4-0.3-8,0-12c0.4-5.1,1.3-10.1,3.1-14.9c0.7-2,1.1-4.1,1.8-6c1.1-3,2.2-6,3.4-8.9c1.2-3,2.4-6,3.7-8.9
		c0.9-2,2.1-3.9,3.2-5.8c0.3-0.6,0.3-1-0.1-1.5c-1.8-2.9-3-6-3.2-9.5c-0.1-1.2-0.3-2.3-0.4-3.4c-0.1-0.7,0.2-1,0.8-1.1
		c2-0.4,4-0.9,6.2-1.4c0.2,1.3,0.4,2.4,0.5,3.5c0,0.3,0.1,0.6,0.2,0.9c0.6,2.2,2.2,2.6,3.7,0.9c1.9-2,3.9-3.9,6.3-5.2
		c3.6-1.9,7.4-2.7,11.4-1.9c2.2,0.4,4.1,1.7,5.7,3.3c2.5,2.5,4.3,5.4,5.1,8.9c0.9,4.3-0.3,8.1-2.5,11.7c-1.6,2.6-3.8,4.6-6.6,5.8
		c-3,1.3-6.1,1.4-9.3,0.9c-3.7-0.6-6.7-2.3-9.4-4.6c-1.8-1.4-2.2-1.4-3.2,0.7c-1.2,2.5-2.3,5.1-3.3,7.8c-1.6,4.3-3,8.5-4.4,12.8
		c-0.8,2.5-1.5,5.1-2.2,7.6c-0.7,2.7-1.4,5.3-1.9,8c-0.8,3.6-1.3,7.3-0.9,11c0.2,2.1,0.8,4.1,2.6,5.3c0.7,0.5,1.6,0.9,2.4,0.9
		c5,0.2,9.1-2.5,11.2-7.1c1.5-3.3,2.4-6.9,3.3-10.4c0.7-2.6,1.6-5.2,2.3-7.8c0.6-2.2,1.1-4.4,1.6-6.7c0.1-0.6,0.4-0.9,1-1
		c2.1-0.5,4.1-0.9,6.2-1.5c0.8-0.2,1,0.2,0.9,0.8c-0.2,1.6-0.4,3.2-0.8,4.8c-1.2,5-2.5,9.9-3.9,14.9c-0.9,3.3-1.8,6.5-2.7,9.8
		c-0.6,2.3-1.2,4.5-1.8,6.8c-0.5,1.9-1,3.8-1.4,5.7c-0.1,0.3,0,0.9,0.2,1.1c0.2,0.1,0.8,0,1.1-0.2c4.1-3.1,8.5-5.9,11.9-9.8
		c1.3-1.5,2.1-3.4,3-5.1c0.9-1.7,1.6-3.4,2.4-5.1c1.6-3.9,3.2-7.7,4.2-11.8c0.6-2.7,1.5-5.3,2.2-8c0.4-1.6,0.8-3.3-0.2-4.9
		c-0.1-0.2-0.2-0.4-0.3-0.7c-0.4-1.1-0.5-2.1,0.4-3c1.1-1.2,2.1-2.4,3.2-3.6c0.4-0.5,0.8-0.5,1.2,0.1c1.1,1.6,2.3,3.3,3.6,4.8
		c1.1,1.3,2.4,2.4,3.8,3.4c2,1.5,3.1,3.3,3.6,5.8c0.5,2.7,0.7,5.3,0.8,8c0.1,2.2,0.4,4.4,0.7,6.6c0.3,1.8,2.6,4.1,5.2,4
		c2-0.1,2,0,2.4,1.9c0.2,0.7,0.3,1.4,0.4,2.1c0.1,0.7,0.3,1.4,0.5,2.1c-1.7,0.9-3.6,1.1-5.4,1.3c-3.2,0.2-5.5-1.7-7.5-3.8
		c-1.1-1.2-1.6-2.6-2-4.2c-0.7-3-0.5-6.2-0.9-9.2c-0.3-2.4-0.3-4.8-1.8-6.9c-0.8-1.1-1.3-1.1-1.7,0.2c-0.6,1.7-1,3.5-1.5,5.2
		c-0.9,3.2-1.7,6.5-2.7,9.7c-1.7,5.6-3.8,10.9-7.8,15.2c-3.3,3.6-6.8,7.1-11,9.7c-3.1,1.9-6.2,3.7-9.4,5.5c-2.1,1.2-3.2,3.1-3.8,5.3
		c-0.7,2.7-1.6,5.3-2.3,7.9c-1.4,5-2.8,10-4.3,15c-1.3,4.4-2.6,8.9-5,12.9c-2.2,3.7-5.2,6.4-9.2,7.9c-2.5,0.9-5.2,0.7-7.9,0.7
		c-3.6-0.1-6.6-1.5-9-4.1c-2.4-2.6-3.9-5.7-3.8-9.3c0.1-4.5,0.5-8.9,2.8-12.9c3.5-5.9,7.8-11,14.2-13.9C89,199.6,90,198.8,91.3,198z
		 M126.8,98.3c-3.2,0.1-5.6,0.9-7.4,2.8c-0.7,0.8-1.5,1.5-2.2,2.3c-0.6,0.7-1.1,1.5-1.6,2.3c-1.1,2.1-1,3.8,0.7,5.8
		c3,3.5,7.6,5.5,12,3.8c1.9-0.7,3.6-1.8,4.4-3.7c1.3-3.1,1.6-6.3,0.2-9.5c-0.6-1.3-1.2-2.7-2.8-3.1
		C128.8,98.7,127.5,98.4,126.8,98.3z"/>
	<path class="st1" d="M196.6,134.1c-2,0.9-3.9,0.9-5.7-0.3c-0.7-0.5-1.5-0.3-2.3-0.2c-3,0.4-4.6,2.5-6.2,4.7
		c-1.8,2.3-3.1,4.9-3.7,7.7c-0.5,2.2-1,4.5-0.7,6.9c0.2,1.4,0.8,2.6,2.3,3c1.6,0.4,3,0,4-1.3c1.3-1.7,2.3-3.7,3-5.8
		c0.5-1.5,1.2-3,1.8-4.5c0.1-0.2,0.2-0.4,0.4-0.4c2-0.9,4-1.7,6-2.7c0.4,1.4,0.2,2.6-0.1,3.9c-0.4,1.4-0.9,2.8-1.3,4.3
		c-0.5,1.8-0.4,3.4,1.1,4.7c1.4,1.2,3.6,1.4,5.3,0.5c1.7-1,3.2-2.3,4.3-4c3.1-4.7,5-9.9,6.4-15.4c0.6-2.5,1.3-5.1,1.9-7.6
		c0.1-0.3,0.3-0.8,0.6-0.9c1.4-0.7,2.9-1.3,4.4-1.9c0.2-0.1,0.4,0.1,0.6,0.2c0.2,0.1,0.3,0.3,0.5,0.5c1,1.1,1.4,1.1,2.6,0.1
		c2-1.7,4.1-3.3,6.1-4.9c1.9-1.5,6.3-1,7.5,0.3c0.5,0.5,0.8,1.1,1.1,1.8c1.2,2.7,1.2,5.5,0.5,8.3c-0.6,2.6-1.5,5.2-2.2,7.8
		c-0.3,1.1-0.6,2.2-0.8,3.3c-0.1,0.6,0,1.3,0.2,1.9c0.3,1.1,1.4,1.6,2.5,1.1c3.5-1.9,6.5-4.3,8.9-7.5c2.7-3.7,4.1-7.9,5.4-12.2
		c1.3-4.3,2.6-8.5,3.8-12.8c1.1-3.8,2.1-7.6,3.2-11.4c0.9-3.1,1.8-6.2,2.6-9.4c0.4-1.4,1.1-2.3,2.6-2.7c2-0.5,3.9-1.2,5.9-1.8
		c0.5,3-1,5.6-1.4,8.5c1.2-0.2,2.2-0.4,3.3-0.6c1.5-0.3,1.5-0.3,1.9,1.2c0.4,1.5,0.9,2.9,1.3,4.5c-2.3,0.8-4.4,1.7-6.7,2.3
		c-2,0.5-3.1,1.6-3.6,3.6c-1.1,4-2.4,7.9-3.7,11.9c-1,3-2.1,6.1-2.9,9.2c-0.6,2.5-1.4,4.9-1.3,7.5c0.2,2.6,2.6,4.9,5.1,4.3
		c1-0.3,1.8-1.1,2.7-1.6c0.6,1.5,1.4,3.2,2.1,4.9c0.1,0.2,0,0.5-0.2,0.6c-1.4,1.3-3.1,2-5,2c-0.7,0-1.4,0-2.1,0
		c-1.3,0-2.5-0.4-3.5-1.1c-0.3-0.2-0.6-0.4-0.9-0.6c-1.6-1.2-3.2-1.1-4.8,0.1c-2.2,1.5-4.4,3.1-6.8,4.5c-4.4,2.6-9,4-14.2,3.3
		c-1-0.2-1.8-0.7-2.4-1.6c-1.2-1.9-1.3-4-0.6-6.1c0.8-2.2,1.7-4.4,2.5-6.6c0.8-2.3,1.4-4.6,2.1-6.9c0.1-0.3,0.1-0.6,0.1-0.9
		c0-0.8-0.2-1.7-1-2c-0.8-0.3-1.4,0.2-2,0.7c-3.7,2.8-5.8,6.7-7.6,10.8c-1.1,2.5-2.1,5.1-3.2,7.6c-2,4.8-4.6,9-8.9,12
		c-1.7,1.3-3.6,2.3-5.8,2.6c-1.7,0.2-3.4,0.5-5.1,0.6c-1.9,0.1-3.7-0.5-5.3-1.6c-0.4-0.3-0.8-0.5-1.2-0.8c-1.2-0.7-2.3-0.7-3.4,0.3
		c-0.6,0.6-1.2,1.2-1.9,1.8c-2.8,2.4-6.1,2.8-9.5,2c-1.5-0.4-2.3-1.5-2.9-2.9c-1.6-3.4-1.5-6.9-1-10.4c0.7-4.8,2.2-9.4,4.4-13.8
		c2.1-4.1,5.2-7.4,9.4-9.5c2.4-1.2,4.8-1.7,7.5-1.3c0.3,0,0.7,0.3,0.8,0.5c1,2.4,2,4.9,3,7.3C196.6,133.8,196.6,133.9,196.6,134.1z"
		/>
	<path class="st1" d="M519.5,64.3c-0.2,1.4-0.4,2.7-0.7,4c-1.2,4.2-2.5,8.3-3.7,12.5c-0.9,3.1-1.9,6.2-2.9,9.3
		c-1.4,4.3-2.7,8.7-4.1,13c-0.1,0.3-0.1,0.9,0,1c0.3,0.2,0.8,0.2,1.2,0.1c0.7-0.3,1.4-0.8,2-1.2c2.1-1.6,4.4-3,6.2-4.9
		c1.8-1.8,3.1-4,4.6-6c0.2-0.3,0.4-0.5,0.7-1c0.2,0.7,0.4,1.3,0.6,1.8c0.6,1.9,1.1,3.8,1.7,5.7c0.2,0.5,0.1,0.8-0.3,1.3
		c-5.4,6.2-12.2,10.5-18.9,14.9c-0.9,0.6-1.5,1.3-1.8,2.2c-0.9,2.7-1.7,5.4-2.6,8.1c-1.3,4.3-2.5,8.7-3.9,12.9
		c-1.5,4.4-3.1,8.8-4.9,13.2c-1.2,3-2.9,5.8-5.4,8c-0.9,0.8-2.2,1.4-3.4,1.8c-3.8,1.4-7.6,0.3-11.4-0.6c-2-0.5-3.5-2.2-4.5-3.9
		c-1.4-2.3-2.5-4.7-3-7.4c-1-5.8,0.4-11,4.1-15.5c2.9-3.6,6.6-6.4,10.3-9.2c3.8-2.9,7.7-5.6,11.6-8.4c1-0.7,2.2-1.4,3.2-2.1
		c1.7-1.2,3.3-2.5,3.8-4.7c0.3-1.4,1-2.7,1.3-4.1c0.3-1,0.4-2.1,0.4-3.1c0-0.2-0.4-0.7-0.6-0.7c-0.7,0-1.4,0-2.1,0.2
		c-1.8,0.4-3.6,0.9-5.4,1.3c-4.4,0.9-8.1-2.3-9.8-5.1c-2-3.1-2.7-6.6-2.4-10.2c0.3-3.4,0.7-6.9,2.1-10.1c0.7-1.5,1.2-3,1.8-4.6
		c0.2-0.6,0.6-0.9,1.2-1.1c1.9-0.6,3.8-1.2,5.8-1.9c0.3-0.1,0.7-0.2,1.2-0.3c-0.2,0.7-0.2,1.3-0.4,1.9c-1.2,3.4-2.4,6.8-3.8,10.2
		c-0.8,2-1,4.1-1,6.3c0,1.7,0.7,3.2,1.6,4.6c0.9,1.4,2.4,2,4.1,2.1c1.3,0.1,2.6,0.1,3.9,0.1c1.2,0,2.3-0.4,3.3-1.1
		c0.3-0.2,0.7-0.5,1-0.7c2.8-1.5,4.2-4,5.1-6.9c1.2-3.9,2.4-7.9,3.6-11.8c0.6-2.2,1.2-4.4,1.8-6.6c0.2-0.6,0.4-0.9,1.1-1.1
		C514.3,65.8,516.8,65,519.5,64.3z M471.5,147.2c0,0.7,0.1,1.2,0.1,1.7c0.1,2.3,1.9,4.5,4.1,5c2,0.4,4,0.4,5.8-0.6
		c3-1.6,4.4-4.3,5.5-7.3c0.9-2.4,1.6-4.9,2.6-7.3c1.6-3.9,3.1-7.9,4.2-12c0.2-0.8,0.2-1.6,0.1-2.4c-0.1-1.1-0.7-1.6-1.8-1.2
		c-1.1,0.4-2.3,0.9-3.2,1.6c-3.5,2.7-7,5.5-10.4,8.3C473.9,136.8,471.7,141.6,471.5,147.2z"/>
	<path class="st1" d="M202.8,110.8c1-0.3,2.1-0.6,3.1-0.9c2.9-0.8,5.8-1.5,8.8-2.3c2.8-0.7,5.7-1.4,8.5-2.1c1.7-0.5,3.4-1.1,5.2-1.5
		c1.8-0.5,3.6-0.8,5.4-1.2c3.6-0.8,7.2-1.7,10.8-2.5c2.4-0.6,2.4-0.5,3.1,1.8c0.3,1,0.7,2,1,3c0.1,0.2-0.1,0.7-0.2,0.8
		c-0.6,0.3-1.3,0.6-2,0.8c-4.2,1.2-8.5,2.3-12.7,3.6c-3.7,1.1-7.4,2.2-11.1,3c-4.2,1-8.3,2.3-12.5,3.5c-1.3,0.3-2.7,0.4-4,0.6
		c-0.2,0-0.6-0.1-0.6-0.3C204.6,115,203.7,112.9,202.8,110.8z"/>
</g>
</svg>
