<?xml version="1.0" encoding="utf-8"?>
<!-- Generator: Adobe Illustrator 19.1.0, SVG Export Plug-In . SVG Version: 6.00 Build 0)  -->
<svg version="1.1" id="Layer_1" xmlns="http://www.w3.org/2000/svg" xmlns:xlink="http://www.w3.org/1999/xlink" x="0px" y="0px"
	 viewBox="-266 374.8 78.5 45.2" style="enable-background:new -266 374.8 78.5 45.2;" xml:space="preserve">
<style type="text/css">
	.st0{fill:#212944;}
</style>
<g>
	<path class="st0" d="M-199.8,413.4h-53.5c-0.7,0-1.2-0.5-1.2-1.2v-29.2c0-0.7,0.5-1.2,1.2-1.2h53.5c0.7,0,1.2,0.5,1.2,1.2v29.2
		C-198.6,412.9-199.1,413.4-199.8,413.4z M-252.1,411.1h51.1v-26.8h-51.1V411.1z"/>
</g>
<g>
	<path class="st0" d="M-226.8,403.7c-0.2,0-0.5-0.1-0.7-0.2L-254,384c-0.5-0.4-0.6-1.1-0.3-1.7c0.4-0.5,1.1-0.6,1.7-0.3l25.7,19
		l26.3-19c0.5-0.4,1.3-0.3,1.7,0.3c0.4,0.5,0.3,1.3-0.3,1.7l-27,19.5C-226.3,403.7-226.6,403.7-226.8,403.7z"/>
</g>
</svg>
