<?xml version="1.0" encoding="utf-8"?>
<!-- Generator: Adobe Illustrator 19.1.0, SVG Export Plug-In . SVG Version: 6.00 Build 0)  -->
<svg version="1.1" id="Layer_1" xmlns="http://www.w3.org/2000/svg" xmlns:xlink="http://www.w3.org/1999/xlink" x="0px" y="0px"
	 viewBox="-176 122.8 78.5 45.2" style="enable-background:new -176 122.8 78.5 45.2;" xml:space="preserve">
<style type="text/css">
	.st0{fill:#24203E;}
</style>
<path class="st0" d="M-109.5,129.3c-0.1,0-0.2-0.1-0.4-0.1c-0.2,0-0.4,0-0.6,0h-53.1c-0.6,0-1,0.3-1.3,0.6c0,0,0,0,0,0
	c0,0,0,0.1-0.1,0.1c0,0,0,0,0,0c-0.2,0.3-0.2,0.6-0.2,0.9v29.2c0,1,0.7,1.7,1.7,1.7h53.5c1,0,1.7-0.7,1.7-1.7v-29.2
	C-108.3,130.2-108.8,129.5-109.5,129.3z M-161.8,134.3l23.9,17.6c0.2,0.1,0.6,0.3,0.9,0.3c0.2,0,0.7,0,1-0.3l24.3-17.6v24.3h-50.1
	V134.3z M-137.1,148.3l-21.1-15.6h42.7L-137.1,148.3z"/>
</svg>
