<?xml version="1.0" encoding="utf-8"?>
<!-- Generator: Adobe Illustrator 19.1.0, SVG Export Plug-In . SVG Version: 6.00 Build 0)  -->
<svg version="1.1" id="Layer_1" xmlns="http://www.w3.org/2000/svg" xmlns:xlink="http://www.w3.org/1999/xlink" x="0px" y="0px"
	 viewBox="-176 122.8 78.5 45.2" style="enable-background:new -176 122.8 78.5 45.2;" xml:space="preserve">
<style type="text/css">
	.st0{fill:#24203E;}
</style>
<g>
	<g>
		<path class="st0" d="M-151,156.6c-6.4,0-11.5-5.2-11.5-11.5c0-6.4,5.2-11.5,11.5-11.5c6.4,0,11.5,5.2,11.5,11.5
			C-139.4,151.4-144.6,156.6-151,156.6z M-151,137.4c-4.2,0-7.6,3.4-7.6,7.6c0,4.2,3.4,7.6,7.6,7.6c4.2,0,7.6-3.4,7.6-7.6
			C-143.4,140.8-146.8,137.4-151,137.4z"/>
	</g>
	<g>
		<path class="st0" d="M-122.5,156.6c-6.4,0-11.5-5.2-11.5-11.5c0-6.4,5.2-11.5,11.5-11.5c6.4,0,11.5,5.2,11.5,11.5
			C-111,151.4-116.1,156.6-122.5,156.6z M-122.5,137.4c-4.2,0-7.6,3.4-7.6,7.6c0,4.2,3.4,7.6,7.6,7.6c4.2,0,7.6-3.4,7.6-7.6
			C-114.9,140.8-118.3,137.4-122.5,137.4z"/>
	</g>
	<g>
		<rect x="-167.1" y="141.3" class="st0" width="6.5" height="3.9"/>
	</g>
	<g>
		<rect x="-112.9" y="141.3" class="st0" width="6.5" height="3.9"/>
	</g>
	<g>
		<path class="st0" d="M-139.7,147.4l-3.7-1.2c0.7-2.1,2.9-5.8,6.6-5.8c3.7,0,5.9,3.6,6.6,5.8l-3.7,1.2c-0.3-0.8-1.4-3.1-2.9-3.1
			C-138.3,144.3-139.4,146.6-139.7,147.4z"/>
	</g>
</g>
</svg>
