<?xml version="1.0" encoding="utf-8"?>
<!-- Generator: Adobe Illustrator 16.0.4, SVG Export Plug-In . SVG Version: 6.00 Build 0)  -->
<!DOCTYPE svg PUBLIC "-//W3C//DTD SVG 1.1//EN" "http://www.w3.org/Graphics/SVG/1.1/DTD/svg11.dtd">
<svg version="1.1" id="Layer_1" xmlns="http://www.w3.org/2000/svg" xmlns:xlink="http://www.w3.org/1999/xlink" x="0px" y="0px"
	 width="290.708px" height="261px" viewBox="0 0 290.708 261" enable-background="new 0 0 290.708 261" xml:space="preserve">
<g id="pEH1JD.tif">
	<g>
		<path d="M54.016,95.412c-3.131-4.038-6.21-8.01-9.436-12.17c1.488-1.333,2.857-2.573,4.241-3.796
			c9.992-8.848,19.771-17.954,30.066-26.433c5.604-4.615,11.763-8.808,18.243-12.051c10.867-5.438,22.339-1.604,28.739,8.761
			c4.044,6.549,5.747,13.888,7.018,21.377c3.489,20.562,5.908,41.346,12.232,61.333c1.143,3.614,2.649,7.186,4.506,10.482
			c3.436,6.1,7.463,6.802,12.225,1.72c4.367-4.661,8.248-9.839,11.869-15.113c5.154-7.509,9.676-15.424,12.756-24.056
			c1.799-5.038,2.738-10.202,1.662-15.571c-1.059-5.265-4.594-8.725-9.98-9.149c-3.049-0.239-6.184-0.114-9.211,0.331
			c-2.934,0.431-5.775,1.482-8.979,2.347c0.77-2.284,1.447-4.499,2.262-6.665c3.832-10.238,8.963-19.703,17.01-27.292
			c10.064-9.495,22.287-13.302,35.91-13.196c6.09,0.047,12.018,0.94,17.336,4.133c8.072,4.844,11.348,12.625,12.801,21.443
			c2.795,16.955-1.645,32.514-9.129,47.511c-8.762,17.555-20.033,33.455-32.01,48.897c-9.543,12.305-19.619,24.141-31.432,34.36
			c-8.408,7.275-17.34,13.737-28.287,16.759c-11.459,3.161-19.677,0.55-26.984-8.763c-7.307-9.313-11.385-20.094-14.42-31.431
			c-5.352-19.991-10.859-39.944-16.659-59.811c-1.577-5.398-4.312-10.483-6.771-15.59c-0.895-1.856-2.398-3.489-3.868-4.982
			c-3.213-3.265-5.42-3.584-9.33-1.254C62.282,89.993,58.304,92.672,54.016,95.412z"/>
	</g>
</g>
</svg>
