<?xml version="1.0" encoding="utf-8"?>
<!-- Generator: Adobe Illustrator 19.1.0, SVG Export Plug-In . SVG Version: 6.00 Build 0)  -->
<svg version="1.1" id="Layer_1" xmlns="http://www.w3.org/2000/svg" xmlns:xlink="http://www.w3.org/1999/xlink" x="0px" y="0px"
	 viewBox="-160 266 290.7 261" style="enable-background:new -160 266 290.7 261;" xml:space="preserve">
<style type="text/css">
	.st0{fill:#212944;}
</style>
<g id="pEH1JD.tif">
	<g>
		<path class="st0" d="M-113,368.6c-3.1-4-6.2-8-9.4-12.2c1.5-1.3,2.9-2.6,4.2-3.8c10-8.8,19.8-18,30.1-26.4
			c5.6-4.6,11.8-8.8,18.2-12.1c10.9-5.4,22.3-1.6,28.7,8.8c4,6.5,5.7,13.9,7,21.4c3.5,20.6,5.9,41.3,12.2,61.3
			c1.1,3.6,2.6,7.2,4.5,10.5c3.4,6.1,7.5,6.8,12.2,1.7c4.4-4.7,8.2-9.8,11.9-15.1c5.2-7.5,9.7-15.4,12.8-24.1
			c1.8-5,2.7-10.2,1.7-15.6c-1.1-5.3-4.6-8.7-10-9.1c-3-0.2-6.2-0.1-9.2,0.3c-2.9,0.4-5.8,1.5-9,2.3c0.8-2.3,1.4-4.5,2.3-6.7
			c3.8-10.2,9-19.7,17-27.3c10.1-9.5,22.3-13.3,35.9-13.2c6.1,0,12,0.9,17.3,4.1c8.1,4.8,11.3,12.6,12.8,21.4
			c2.8,17-1.6,32.5-9.1,47.5c-8.8,17.6-20,33.5-32,48.9c-9.5,12.3-19.6,24.1-31.4,34.4c-8.4,7.3-17.3,13.7-28.3,16.8
			c-11.5,3.2-19.7,0.5-27-8.8S-61,453.5-64,442.2c-5.4-20-10.9-39.9-16.7-59.8c-1.6-5.4-4.3-10.5-6.8-15.6c-0.9-1.9-2.4-3.5-3.9-5
			c-3.2-3.3-5.4-3.6-9.3-1.3C-104.7,363.2-108.7,365.9-113,368.6z"/>
	</g>
</g>
</svg>
