<?xml version="1.0" encoding="utf-8"?>
<!-- Generator: Adobe Illustrator 19.1.0, SVG Export Plug-In . SVG Version: 6.00 Build 0)  -->
<svg version="1.1" id="Layer_1" xmlns="http://www.w3.org/2000/svg" xmlns:xlink="http://www.w3.org/1999/xlink" x="0px" y="0px"
	 viewBox="-176 122.8 78.5 45.2" style="enable-background:new -176 122.8 78.5 45.2;" xml:space="preserve">
<style type="text/css">
	.st0{fill:#24203E;}
</style>
<g>
	<path class="st0" d="M-136.8,158.9c-12.7,0-22.8-11.9-23.2-12.4l-0.8-1l0.8-1c0.4-0.5,10.5-12.4,23.2-12.4
		c12.7,0,22.8,11.9,23.2,12.4l0.8,1l-0.8,1C-114,146.9-124,158.9-136.8,158.9z M-156.6,145.4c2.6,2.8,10.6,10.3,19.8,10.3
		c9.2,0,17.2-7.5,19.8-10.3c-2.6-2.8-10.6-10.3-19.8-10.3C-146,135.1-153.9,142.6-156.6,145.4z"/>
</g>
<g>
	<path class="st0" d="M-136.4,158.5c-7.3,0-13.3-6-13.3-13.3c0-7.3,6-13.3,13.3-13.3s13.3,6,13.3,13.3
		C-123.1,152.5-129,158.5-136.4,158.5z M-136.4,135.1c-5.6,0-10.1,4.5-10.1,10.1c0,5.6,4.5,10.1,10.1,10.1s10.1-4.5,10.1-10.1
		C-126.3,139.7-130.8,135.1-136.4,135.1z"/>
</g>
</svg>
